<svg width="161" height="74" viewBox="0 0 161 74" fill="none" xmlns="http://www.w3.org/2000/svg">
<path d="M32.4504 18.7106C31.5746 20.0191 30.8405 21.4171 30.2604 22.8808C28.2604 27.2508 26.1302 31.5707 23.8102 35.7807C21.7402 39.5107 20.2304 43.5007 18.2404 47.2407C16.5804 50.3807 15.0005 53.5807 13.3405 56.7307C11.8092 59.4594 10.5787 62.3464 9.67058 65.3408C9.09058 67.4308 10.3303 66.6208 10.9303 66.6308C14.2903 66.6308 17.6602 66.7807 21.0202 66.5507C21.6366 66.4928 22.256 66.6271 22.7931 66.935C23.3303 67.2429 23.7587 67.7095 24.0202 68.2707C24.3408 68.8286 24.4963 69.4663 24.4679 70.1091C24.4396 70.7519 24.2289 71.3733 23.8605 71.9008C23.6676 72.2033 23.3966 72.4482 23.0763 72.6101C22.7561 72.7719 22.3982 72.8448 22.0402 72.8207C17.6153 72.6272 13.1824 72.7241 8.77019 73.1108C7.16386 73.2956 5.54504 73.3457 3.93035 73.2607C1.03034 73.0807 -0.289655 70.9707 0.930345 68.2607C1.83035 66.2007 2.88054 64.2008 3.88054 62.1708C5.95054 57.9808 8.17023 53.8508 10.0602 49.5808C11.5002 46.3408 13.5605 43.4108 14.8205 40.1308C17.3705 33.5108 21.1106 27.5008 24.2106 21.1308C25.5306 18.4208 26.6406 15.6008 27.9806 12.9008C29.5706 9.71083 30.8804 6.37076 32.7804 3.33076C33.083 2.71774 33.5459 2.19806 34.1198 1.82661C34.6937 1.45516 35.357 1.24565 36.0402 1.22065C36.5722 1.15247 37.1105 1.28467 37.5505 1.5915C37.9904 1.89833 38.3008 2.35801 38.4206 2.88081C38.7309 4.03692 38.8291 5.23972 38.7106 6.43086C38.6036 9.53583 38.6768 12.6442 38.9303 15.7407C39.2203 19.7407 39.1405 23.6207 39.0905 27.5507C39.0999 28.7884 38.9315 30.0209 38.5905 31.2106C38.4236 31.8353 38.0498 32.385 37.5304 32.77C37.011 33.155 36.3768 33.3527 35.7306 33.3308C35.0918 33.3906 34.452 33.2226 33.925 32.8566C33.398 32.4907 33.0173 31.9503 32.8503 31.3308C32.0703 29.3308 32.4606 27.2108 32.4606 25.1408L32.4504 18.7106Z" fill="black"/>
<path d="M32.5703 57.3896V46.2795C32.5703 45.8595 32.5701 45.4295 32.6201 45.0095C32.8601 43.0095 34.0002 42.0097 35.9502 42.1697C37.9002 42.3297 38.79 43.3996 38.79 45.3896C38.79 51.443 38.7638 57.4895 38.7104 63.5295C38.7104 64.1195 38.7104 64.7196 38.7104 65.3096C38.7104 65.8996 38.4802 66.6096 39.4502 66.6396C40.4202 66.6696 40.23 65.9396 40.25 65.3796C40.25 64.6096 40.25 63.8396 40.25 63.0796C40.2 57.0796 40.4004 51.1494 40.1504 45.1894C40.1295 44.3548 40.4352 43.5452 41.0029 42.9331C41.5707 42.321 42.3551 41.9551 43.189 41.9133C44.0228 41.8716 44.8402 42.1574 45.4663 42.7097C46.0924 43.262 46.4775 44.0371 46.54 44.8696C46.61 47.5396 46.54 50.2296 46.54 52.8696C46.54 56.9596 46.54 61.0496 46.54 65.1296C46.54 66.2696 46.8103 66.7197 48.0303 66.6797C50.5403 66.5897 53.0303 66.5797 55.5703 66.6797C57.6504 66.7145 59.7197 66.3758 61.6802 65.6797C63.1409 65.2144 64.4956 64.465 65.666 63.4748C66.8364 62.4847 67.7992 61.2732 68.5 59.9097C69.8675 57.4058 70.4169 54.5365 70.0708 51.7046C69.7247 48.8727 68.5006 46.2204 66.5703 44.1196C65.8803 43.3796 64.9902 42.8296 64.9902 41.6396C65.0099 41.0324 65.2024 40.4431 65.5454 39.9416C65.8884 39.4401 66.3679 39.047 66.9268 38.8086C67.4856 38.5701 68.1008 38.4963 68.7002 38.5957C69.2996 38.6951 69.858 38.9636 70.3101 39.3696C73.1294 42.0908 75.114 45.5599 76.0303 49.3696C77.8903 56.6296 73.9302 65.7197 68.2202 69.1697C64.9141 71.3805 61.0639 72.6396 57.0903 72.8096C50.2303 72.9096 43.37 72.8094 36.52 72.9394C35.5057 72.9044 34.5429 72.4852 33.8262 71.7666C33.1094 71.048 32.6925 70.084 32.6602 69.0696C32.7702 65.1496 32.6602 61.2296 32.6602 57.3096L32.5703 57.3896Z" fill="black"/>
<path d="M52.8494 33.8503C52.2194 33.6903 52.0893 33.1702 51.7493 32.7402C50.2493 30.8402 51.2395 28.7403 51.1395 26.8403C51.1717 24.9258 50.8982 23.0184 50.3294 21.1901C50.1184 20.7714 50.0086 20.3092 50.0086 19.8403C50.0086 19.3714 50.1184 18.9089 50.3294 18.4902C50.6394 17.9502 50.3294 17.2603 50.3294 16.5703C49.5894 16.9303 49.6398 17.4903 49.7098 18.1003C49.7598 18.5103 49.7097 19.1003 49.1697 19.1003C48.6297 19.1003 48.5297 18.4603 48.6697 18.1003C49.2297 16.5803 48.6694 14.7704 50.0394 13.4204C50.5594 12.8904 50.4798 11.9404 51.2298 11.4204C51.9798 10.9004 52.6898 10.8203 53.2298 11.3603C54.7898 13.0103 56.4095 14.6203 57.1395 16.9003C57.7095 18.6803 56.4795 19.9002 55.9095 21.2702C54.6204 24.5199 54.0441 28.0085 54.2195 31.5002C54.34 32.1243 54.6592 32.6925 55.1297 33.1198C55.6002 33.5471 56.1966 33.8105 56.8294 33.8703C65.8794 34.4003 72.1797 25.1702 69.9197 17.4702C69.0922 14.4997 67.3411 11.8695 64.9197 9.96015C63.4365 8.9385 61.7139 8.31857 59.9197 8.16034C59.2897 8.06034 58.6496 8.00028 58.0296 7.85028C56.8596 7.56028 56.1096 7.44034 56.0296 9.16034C55.9096 11.1603 54.1194 11.7303 52.5994 10.4103C52.3894 10.2303 52.3396 10.0703 52.5496 9.90033C53.2596 9.31033 53.2294 8.37018 53.7694 7.49018C52.5694 7.31018 51.4797 7.39032 50.4197 7.14032C49.755 7.07035 49.1367 6.76644 48.6751 6.2829C48.2136 5.79936 47.9387 5.16751 47.8997 4.50019C47.8629 3.85093 48.038 3.20728 48.3987 2.6662C48.7595 2.12512 49.2863 1.71591 49.8997 1.50019C51.7197 0.660186 53.6694 0.850352 55.5594 0.920352C59.5838 0.914807 63.5417 1.94814 67.0496 3.92035C70.8831 6.12856 73.7936 9.64261 75.2493 13.8203C76.4893 17.3503 77.2497 20.8202 76.6297 24.5602C76.3586 26.0718 75.8237 27.5239 75.0496 28.8503C72.7438 33.0125 69.2666 36.4062 65.0496 38.6103C62.6843 39.7229 60.093 40.2705 57.4798 40.2101C49.8198 40.3101 42.1498 40.2902 34.4798 40.3102C34.0104 40.2905 33.5424 40.2405 33.0794 40.1603C31.0794 39.9103 30.2697 39.0303 30.1697 37.1603C30.1267 36.7775 30.1595 36.3899 30.2664 36.0197C30.3733 35.6496 30.5522 35.3041 30.7928 35.0031C31.0334 34.7022 31.3308 34.4516 31.6683 34.2658C32.0058 34.08 32.3766 33.9626 32.7596 33.9204C34.0535 33.6443 35.3805 33.5567 36.6995 33.6603C41.9695 33.8803 47.2394 34.3901 52.5194 33.9501L52.8494 33.8503Z" fill="black"/>
<path d="M40.4801 16.8799C40.0401 13.3999 40.2701 9.87997 40.1501 6.41997C40.1001 4.94997 39.8797 3.22982 41.3297 2.01982C41.8048 1.66004 42.3658 1.43023 42.9567 1.35308C43.5476 1.27592 44.1483 1.35414 44.6999 1.57988C45.2407 1.72901 45.7207 2.04521 46.071 2.48345C46.4212 2.92168 46.6238 3.45945 46.6501 4.01982C46.8501 5.47982 46.4001 6.88988 46.4201 8.32988C46.5101 15.3999 46.6098 22.4698 46.6798 29.5398C46.7263 30.0639 46.6424 30.5912 46.4357 31.075C46.229 31.5588 45.9061 31.9841 45.4953 32.3128C45.0845 32.6414 44.5986 32.8633 44.0812 32.9588C43.5638 33.0543 43.031 33.0203 42.5299 32.8599C41.9408 32.7448 41.4134 32.4198 41.0456 31.9454C40.6778 31.4709 40.4946 30.8791 40.5299 30.2798C40.4599 25.8198 40.4801 21.3499 40.4801 16.8799Z" fill="black"/>
<path d="M121.45 54.5588C121.45 53.2788 121.4 52.0087 121.45 50.7287C121.51 49.2787 122.45 48.4689 124.1 48.4289C124.763 48.3493 125.43 48.5253 125.967 48.9211C126.504 49.3169 126.87 49.9025 126.99 50.5588C127.01 50.6847 127.01 50.8127 126.99 50.9387C126.88 51.5587 127.39 52.5889 126.51 52.6789C125.45 52.7889 125.92 51.6788 125.84 51.1188C125.839 50.9259 125.799 50.735 125.723 50.5576C125.647 50.3801 125.537 50.2198 125.398 50.0856C125.259 49.9515 125.095 49.8464 124.915 49.7766C124.735 49.7067 124.543 49.6736 124.35 49.6789C123.41 49.6789 122.721 50.0488 122.691 51.0288C122.611 53.4888 122.59 55.9589 122.58 58.4289C122.566 58.7333 122.669 59.0314 122.868 59.2621C123.067 59.4929 123.347 59.6385 123.651 59.6689C123.942 59.7415 124.249 59.7185 124.526 59.6032C124.803 59.488 125.036 59.2865 125.191 59.0288C125.941 57.8988 125.7 56.9687 124.49 56.4687C124.346 56.4329 124.221 56.3441 124.139 56.2199C124.058 56.0957 124.026 55.9453 124.05 55.7988C124.05 55.4988 124.28 55.3888 124.55 55.3088C126.29 54.8188 127.09 55.4089 127.06 57.1689C127.06 58.1089 127.06 59.0387 127.06 59.9787C127.06 60.7287 126.65 61.0887 126.06 60.7687C125.537 60.523 124.939 60.4874 124.39 60.6689C124.029 60.7783 123.647 60.7982 123.277 60.7272C122.906 60.6562 122.558 60.4963 122.263 60.2612C121.968 60.0261 121.734 59.7229 121.582 59.3776C121.43 59.0323 121.364 58.6552 121.39 58.2788C121.39 57.0488 121.39 55.8088 121.39 54.5788L121.45 54.5588Z" fill="black"/>
<path d="M133.26 54.3489C133.26 52.8189 133.26 51.2888 133.26 49.7688C133.26 48.9588 133.55 48.6289 134.37 48.6089C138.85 48.4789 138.57 48.7888 138.53 52.5388C138.583 52.8316 138.57 53.1325 138.492 53.4197C138.414 53.7068 138.273 53.9729 138.08 54.1987C138.03 54.2375 137.989 54.2862 137.958 54.3416C137.928 54.3969 137.91 54.4579 137.904 54.5207C137.899 54.5836 137.906 54.6469 137.926 54.7068C137.946 54.7667 137.977 54.8219 138.02 54.8689C139.02 56.2589 138.44 57.8088 138.45 59.2988C138.433 59.4916 138.361 59.6755 138.242 59.8281C138.123 59.9808 137.963 60.0958 137.78 60.1589C136.476 60.512 135.111 60.5768 133.78 60.3489C133.23 60.3489 133.3 59.7289 133.3 59.3489C133.3 57.6989 133.3 56.0489 133.3 54.3489H133.26ZM134.44 57.3489C134.44 57.5589 134.44 57.7788 134.44 57.9888C134.44 58.7888 134.37 59.5287 135.57 59.4587C136.57 59.3887 137.5 59.3888 137.45 58.0088C137.48 57.4158 137.48 56.8217 137.45 56.2288C137.31 55.2288 136.55 55.0288 135.66 55.0388C134.77 55.0488 134.45 55.5189 134.47 56.3289L134.44 57.3489ZM134.44 51.8589C134.66 52.4689 133.94 53.7189 135.44 53.8589C136.16 53.9389 137.03 54.0089 137.29 53.1489C137.472 52.6954 137.559 52.2091 137.545 51.7205C137.532 51.2318 137.418 50.7514 137.21 50.3088C137.13 50.1588 136.87 50.0688 136.67 50.0088C134.99 49.5588 134.43 49.9689 134.43 51.8489L134.44 51.8589Z" fill="black"/>
<path d="M153.699 57.3198C153.749 60.2398 151.879 61.6299 149.569 60.6399C148.906 60.2551 148.398 59.6511 148.131 58.9321C147.865 58.2132 147.857 57.4238 148.109 56.6997C148.18 56.5688 148.291 56.4647 148.427 56.4033C148.562 56.3419 148.714 56.3267 148.859 56.3599C148.935 56.3558 149.01 56.3669 149.081 56.3926C149.151 56.4183 149.216 56.458 149.271 56.5093C149.326 56.5606 149.37 56.6226 149.401 56.6914C149.432 56.7602 149.448 56.8346 149.449 56.9099C149.449 57.4199 149.449 57.9097 149.499 58.4397C149.488 58.6003 149.511 58.7617 149.566 58.9129C149.621 59.0641 149.708 59.2019 149.82 59.3172C149.933 59.4324 150.069 59.5225 150.218 59.5816C150.368 59.6406 150.529 59.6674 150.69 59.6599C150.856 59.6965 151.028 59.6994 151.195 59.6687C151.362 59.638 151.522 59.5743 151.664 59.4812C151.807 59.3881 151.929 59.2675 152.025 59.1265C152.12 58.9855 152.186 58.8268 152.219 58.6599C152.466 58.0184 152.453 57.3063 152.185 56.6738C151.916 56.0414 151.412 55.5379 150.779 55.2698C147.939 53.5398 148.059 53.5698 148.239 50.4998C148.26 49.9833 148.48 49.4949 148.853 49.137C149.225 48.779 149.722 48.5794 150.239 48.5799C152.819 48.3499 153.659 49.0198 153.599 51.2798C153.599 51.7498 153.809 52.4398 153.059 52.5098C152.309 52.5798 152.349 51.8599 152.309 51.3399C152.269 50.8199 152.239 50.0198 151.469 49.7798C151.209 49.6762 150.925 49.6476 150.65 49.697C150.374 49.7465 150.117 49.8722 149.909 50.0598C149.59 50.5532 149.442 51.1381 149.489 51.7239C149.536 52.3097 149.776 52.8637 150.17 53.2998C150.715 53.7079 151.29 54.0756 151.889 54.3999C153.149 55.0899 153.989 56.0298 153.699 57.3198Z" fill="black"/>
<path d="M160.509 54.6306C160.509 56.2906 160.509 57.9506 160.509 59.6306C160.509 60.4006 160.249 60.8205 159.459 60.4805C158.979 60.2805 158.639 60.4806 158.239 60.6106C156.529 61.0306 155.139 60.1605 155.079 58.4405C154.989 55.5105 155.079 52.5807 155.079 49.6407C155.079 49.1307 155.189 48.6905 155.849 48.7305C156.509 48.7705 156.449 49.2407 156.449 49.6707C156.449 52.2207 156.449 54.7706 156.449 57.3206C156.443 57.745 156.466 58.1694 156.519 58.5906C156.533 58.8492 156.632 59.096 156.8 59.293C156.968 59.49 157.196 59.6262 157.449 59.6807C157.721 59.7386 158.003 59.7087 158.257 59.5955C158.51 59.4823 158.721 59.2914 158.859 59.0506C159.192 58.5012 159.339 57.8597 159.279 57.2205C159.279 54.7505 159.279 52.2906 159.279 49.8206C159.279 49.3406 159.169 48.6805 159.959 48.7205C160.749 48.7605 160.479 49.3906 160.479 49.8106C160.479 51.4206 160.479 53.0407 160.479 54.6507L160.509 54.6306Z" fill="black"/>
<path d="M91.9902 55.0306V50.0306C91.9902 49.5806 92.1704 48.9105 92.6104 49.2405C93.3804 49.8205 93.9504 49.3005 94.6104 49.2405C94.9182 49.1754 95.2363 49.177 95.5435 49.2454C95.8506 49.3138 96.1394 49.4475 96.3906 49.637C96.6418 49.8266 96.8495 50.0679 96.9995 50.3445C97.1495 50.6212 97.2385 50.9266 97.2603 51.2405C97.3703 54.2405 97.3103 57.2406 97.3203 60.3106C97.3203 60.7106 97.1302 60.9605 96.7002 60.9505C96.1102 60.9505 96.0601 60.5106 96.0601 60.0606C96.0601 58.0606 96.0601 56.1407 96.0601 54.1807C96.0601 53.3707 96.0601 52.5606 96.0601 51.7606C96.0601 50.9606 95.7803 50.1707 94.8003 50.1407C94.5959 50.1327 94.392 50.1652 94.2002 50.2364C94.0084 50.3076 93.8328 50.4158 93.6831 50.5552C93.5334 50.6947 93.4127 50.8624 93.3281 51.0486C93.2436 51.2349 93.1969 51.4362 93.1904 51.6407C93.112 52.4482 93.0883 53.26 93.1201 54.0706C93.1201 56.0706 93.1201 57.9805 93.1201 59.9405C93.1201 60.3605 93.2204 60.9405 92.6104 60.9405C92.0004 60.9405 92 60.3705 92 59.9405C92 58.3205 92 56.7006 92 55.0806L91.9902 55.0306Z" fill="black"/>
<path d="M145.89 55.3098C145.89 56.7498 145.89 58.1999 145.89 59.6499C145.89 60.2399 145.89 61.0299 144.95 60.3799C144.55 60.1299 144.31 60.4698 144.02 60.5798C143.683 60.7464 143.311 60.8305 142.935 60.8254C142.559 60.8203 142.188 60.7262 141.856 60.5505C141.523 60.3749 141.237 60.1227 141.02 59.8149C140.804 59.5071 140.663 59.1524 140.611 58.7798C140.535 58.4035 140.485 58.0228 140.461 57.6399C140.281 55.0499 141.041 54.0599 143.631 53.6399C144.451 53.5099 144.981 53.3298 144.901 52.3298C144.821 51.3298 145.051 50.0997 143.671 49.6997C142.531 49.3597 141.671 50.0799 141.571 51.3799C141.571 51.8099 141.73 52.4597 141.01 52.4397C140.29 52.4197 140.52 51.7698 140.51 51.3498C140.452 50.9779 140.481 50.5974 140.596 50.239C140.712 49.8806 140.91 49.5541 141.175 49.2864C141.439 49.0187 141.763 48.817 142.12 48.6977C142.477 48.5785 142.858 48.545 143.231 48.5998C145.101 48.5998 145.881 49.3397 145.901 51.1997C145.901 52.5597 145.89 53.9398 145.89 55.3098ZM144.89 56.7898C144.89 56.5298 144.89 56.2798 144.89 56.0298C144.89 54.5298 144.47 54.2497 143.04 54.7497C141.8 55.1897 141.44 56.2098 141.72 58.3198C141.84 59.1898 142.22 59.8098 143.12 59.8398C143.334 59.8534 143.549 59.8245 143.752 59.7549C143.955 59.6852 144.142 59.5762 144.303 59.4341C144.464 59.2919 144.595 59.1194 144.689 58.9265C144.783 58.7336 144.838 58.524 144.85 58.3098C144.905 57.805 144.916 57.2963 144.881 56.7898H144.89Z" fill="black"/>
<path d="M104.72 54.801V59.6511C104.72 60.4211 104.56 61.0409 103.64 60.4409C103.2 60.1509 102.919 60.441 102.579 60.531C102.209 60.6801 101.806 60.7322 101.41 60.6824C101.013 60.6325 100.636 60.4824 100.313 60.2461C99.991 60.0099 99.7347 59.6954 99.5678 59.3323C99.4009 58.9692 99.3292 58.5696 99.3598 58.1712C99.3098 55.4512 99.3098 52.721 99.3598 50.001C99.3598 49.511 99.1595 48.731 100.039 48.771C100.919 48.811 100.64 49.561 100.64 50.051C100.64 52.561 100.64 55.0511 100.64 57.5811C100.64 58.5011 100.54 59.581 101.88 59.731C102.88 59.841 103.6 58.901 103.62 57.501C103.62 55.161 103.62 52.821 103.62 50.501C103.62 50.201 103.62 49.9111 103.62 49.6111C103.62 49.3111 103.62 48.781 104.15 48.771C104.68 48.761 104.71 49.2011 104.71 49.5911C104.71 51.3311 104.71 53.0811 104.71 54.8211L104.72 54.801Z" fill="black"/>
<path d="M89.9203 59.5596C89.9203 59.9696 89.9202 60.3597 89.4002 60.3997C88.8802 60.4397 88.74 60.1195 88.66 59.7095C88.58 59.2995 88.4803 58.9596 88.4403 58.5796C88.3603 57.6896 87.7699 57.6697 87.0799 57.6497C86.3899 57.6297 86.08 58.0197 85.93 58.6497C85.78 59.2797 86.12 60.5496 84.93 60.3196C83.74 60.0896 84.5903 59.0197 84.6903 58.4197C85.1603 55.4797 85.7601 52.5597 86.3001 49.6397C86.4101 49.0597 86.6101 48.6995 87.3001 48.7195C87.9901 48.7395 88.2001 48.8695 88.3001 49.4595C88.8301 52.8095 89.3803 56.1696 89.9203 59.5596ZM87.4603 51.1297H87.0399C86.7899 52.7097 86.5199 54.2797 86.3099 55.8597C86.2199 56.4997 86.76 56.4595 87.18 56.4595C87.6 56.4595 88.1799 56.4597 88.0799 55.8697C87.9099 54.2397 87.6703 52.6697 87.4603 51.0897V51.1297Z" fill="black"/>
<path d="M119.15 55.219C119.15 56.709 119.15 58.219 119.15 59.689C119.15 60.199 119.25 61.0192 118.28 60.3692C117.86 60.0792 117.56 60.4691 117.23 60.5791C116.906 60.7204 116.554 60.7873 116.201 60.7747C115.848 60.762 115.502 60.6703 115.189 60.5061C114.877 60.342 114.605 60.1095 114.394 59.8262C114.182 59.5429 114.038 59.2159 113.97 58.8692C113.866 58.4563 113.802 58.0343 113.78 57.6092C113.58 55.1592 114.44 54.0792 116.88 53.6792C117.53 53.5692 118.31 53.6791 118.23 52.5991C118.15 51.5191 118.5 50.199 117.04 49.689C115.94 49.299 115.04 50.0191 114.9 51.3191C114.9 51.7291 115.1 52.4292 114.38 52.3992C113.66 52.3692 113.85 51.649 113.85 51.189C113.85 49.479 114.85 48.6192 116.65 48.6492C118.45 48.6792 119.14 49.4292 119.15 51.1392C119.16 52.4992 119.15 53.859 119.15 55.219ZM118.23 56.699V55.2991C118.23 54.9391 118.16 54.6591 117.72 54.5491C117.406 54.4763 117.08 54.4717 116.764 54.5359C116.448 54.6001 116.149 54.7317 115.888 54.9214C115.627 55.1111 115.41 55.3544 115.252 55.6353C115.094 55.9161 114.997 56.2278 114.97 56.5491C114.94 57.0987 114.94 57.6494 114.97 58.199C114.97 59.199 115.41 59.8692 116.44 59.9092C117.47 59.9492 118.04 59.2491 118.2 58.2691C118.247 57.7471 118.257 57.2224 118.23 56.699Z" fill="black"/>
<path d="M98.0491 69.3504C99.4991 67.2504 99.979 67.0505 102.469 67.6605C103.289 67.8605 103.009 67.2805 103.079 66.9305C103.149 66.5805 102.819 65.6405 103.449 65.6505C104.079 65.6605 103.859 66.5303 103.869 67.0103C103.869 68.6303 103.919 70.2504 103.869 71.8604C103.869 72.4104 104.079 73.4604 102.869 72.5904C102.779 72.5204 102.559 72.5905 102.399 72.6505C100.009 73.2505 99.449 73.0404 97.969 70.8304C97.6607 71.6269 97.0889 72.2938 96.3489 72.7203C95.9857 72.9016 95.5877 73.0019 95.1819 73.014C94.7762 73.0261 94.3722 72.9498 93.9988 72.7904C93.4453 72.5642 92.9766 72.1708 92.6575 71.6651C92.3384 71.1594 92.1854 70.5668 92.2195 69.9698C92.2537 69.3728 92.4733 68.8013 92.8479 68.3353C93.2226 67.8693 93.7332 67.532 94.3089 67.3704C95.8089 66.9904 96.8891 67.5604 98.0491 69.3504ZM95.1692 72.3504C95.4683 72.3626 95.7664 72.3133 96.0457 72.2056C96.325 72.098 96.5792 71.9342 96.7928 71.7244C97.0063 71.5147 97.1748 71.2635 97.2874 70.9862C97.4 70.7088 97.4544 70.4114 97.4476 70.1121C97.4407 69.8129 97.3725 69.5183 97.2474 69.2464C97.1222 68.9745 96.9429 68.7311 96.72 68.5313C96.4971 68.3316 96.2354 68.1796 95.9515 68.0848C95.6675 67.99 95.3673 67.9545 95.0691 67.9803C94.5145 68.0284 93.9988 68.2859 93.6272 68.7005C93.2557 69.1151 93.0559 69.6557 93.0687 70.2122C93.0814 70.7688 93.306 71.2997 93.6961 71.6969C94.0862 72.094 94.613 72.3278 95.1692 72.3504V72.3504ZM103.059 70.2703C103.099 69.9852 103.078 69.6947 102.995 69.4188C102.913 69.1428 102.772 68.888 102.582 68.6715C102.392 68.455 102.158 68.2819 101.895 68.1644C101.632 68.0468 101.347 67.9875 101.059 67.9903C100.774 67.9765 100.489 68.019 100.221 68.1153C99.952 68.2116 99.7052 68.3598 99.4939 68.5516C99.2827 68.7433 99.1113 68.975 98.9896 69.233C98.8678 69.491 98.7978 69.7705 98.784 70.0555C98.7702 70.3405 98.8127 70.6253 98.909 70.8939C99.0053 71.1624 99.1538 71.4092 99.3455 71.6204C99.5373 71.8317 99.7687 72.0033 100.027 72.1251C100.285 72.2469 100.564 72.3166 100.849 72.3304C101.14 72.3745 101.437 72.3515 101.718 72.2633C101.998 72.175 102.255 72.024 102.468 71.8214C102.681 71.6188 102.846 71.37 102.948 71.0943C103.05 70.8186 103.088 70.523 103.059 70.2303V70.2703Z" fill="black"/>
<path d="M125.41 70.7893C123.77 72.7293 122.72 73.1794 121.31 72.6094C120.747 72.3759 120.273 71.9711 119.953 71.4524C119.633 70.9338 119.485 70.3276 119.529 69.72C119.573 69.1124 119.808 68.5342 120.2 68.0674C120.591 67.6006 121.12 67.2689 121.71 67.1194C123.07 66.7894 124.14 67.3594 125.27 69.1194C125.6 68.7994 125.45 68.4094 125.48 68.0694C125.54 67.4494 125.65 66.9494 126.37 67.5694C126.77 67.9094 126.98 67.4994 127.26 67.3794C129.5 66.3794 131.26 67.5095 131.26 69.9295C131.26 70.6495 131.26 71.3694 131.26 72.0894C131.26 72.3594 131.18 72.6394 130.86 72.6394C130.54 72.6394 130.51 72.3194 130.51 72.0594C130.51 71.3394 130.51 70.6194 130.51 69.8994C130.51 68.6094 129.86 67.8994 128.71 67.8994C128.444 67.8661 128.174 67.8867 127.916 67.9598C127.658 68.0328 127.418 68.1568 127.209 68.3247C127 68.4927 126.827 68.7009 126.7 68.937C126.573 69.1732 126.495 69.4323 126.47 69.6993C126.36 70.4093 126.47 71.1394 126.38 71.8594C126.38 72.1994 126.52 72.7393 125.93 72.7293C125.49 72.7293 125.55 72.2595 125.52 71.9295C125.49 71.5995 125.44 71.1793 125.41 70.7893ZM124.55 69.9295C124.547 69.6445 124.487 69.3629 124.375 69.1009C124.263 68.8388 124.101 68.6016 123.897 68.4024C123.693 68.2032 123.452 68.046 123.187 67.94C122.923 67.834 122.64 67.7812 122.355 67.7845C122.07 67.7877 121.789 67.8469 121.527 67.959C121.265 68.0711 121.027 68.2337 120.828 68.4375C120.629 68.6414 120.472 68.8825 120.366 69.147C120.26 69.4115 120.207 69.6943 120.21 69.9793C120.217 70.5548 120.451 71.1041 120.863 71.5064C121.275 71.9086 121.83 72.1309 122.405 72.1243C122.981 72.1177 123.53 71.8829 123.932 71.4712C124.334 71.0596 124.557 70.505 124.55 69.9295V69.9295Z" fill="black"/>
<path d="M106.789 54.5604C106.789 52.9004 106.789 51.2504 106.789 49.5604C106.789 49.2304 106.74 48.8403 107.18 48.7203C107.43 48.6603 107.79 48.6505 107.85 48.9205C108.09 49.9205 108.48 49.4505 108.97 49.1405C109.347 48.8512 109.819 48.7115 110.293 48.7484C110.767 48.7853 111.211 48.9962 111.539 49.3404C112.349 50.1104 112.149 51.1404 112.019 52.1004C112.019 52.3904 111.69 52.4505 111.41 52.4305C111.304 52.4355 111.2 52.403 111.116 52.339C111.032 52.275 110.973 52.1835 110.95 52.0804C110.901 51.7863 110.878 51.4884 110.88 51.1903C110.88 50.5803 110.81 49.9604 110.06 49.8004C109.31 49.6404 108.859 50.0705 108.519 50.6705C108.197 51.2855 108.048 51.9771 108.09 52.6705C108.09 54.9705 108.09 57.2604 108.09 59.5604C108.09 60.0404 108.24 60.6805 107.44 60.6705C106.64 60.6605 106.769 60.0404 106.769 59.5404C106.769 57.8904 106.769 56.2304 106.769 54.5404L106.789 54.5604Z" fill="black"/>
<path d="M83.9898 68.8198C83.9297 68.3986 83.9297 67.971 83.9898 67.5498C84.2298 66.6898 83.1198 65.1699 85.1998 65.1699C87.9598 65.1699 89.0299 65.8699 89.0899 67.8699C89.1484 68.231 89.1241 68.6005 89.0191 68.9509C88.9142 69.3014 88.7313 69.6236 88.484 69.8931C88.2366 70.1626 87.9311 70.3725 87.5909 70.5071C87.2507 70.6416 86.8844 70.6973 86.5196 70.6699C85.5196 70.6699 84.44 70.4598 84.65 72.0598C84.6583 72.1129 84.6524 72.1671 84.6334 72.2173C84.6144 72.2675 84.5829 72.3119 84.5416 72.3462C84.5003 72.3805 84.4504 72.4035 84.3976 72.4128C84.3447 72.4222 84.2904 72.4179 84.2398 72.3999C83.9698 72.3399 83.9801 72.0899 83.9801 71.8899C83.9801 70.8899 83.9801 69.8898 83.9801 68.8198H83.9898ZM84.63 67.9797C84.95 68.7597 83.9697 70.2099 85.8697 70.1399C87.7697 70.0699 88.4698 69.4899 88.4298 67.9099C88.3898 66.3299 87.6999 65.9799 85.8199 65.9099C83.9399 65.8399 84.9297 67.2197 84.6397 67.9797H84.63Z" fill="black"/>
<path d="M109.819 70.2202C109.819 72.8202 109.819 72.8202 107.309 72.9702C106.938 73.0353 106.558 73.0149 106.196 72.9104C105.835 72.8059 105.502 72.6202 105.223 72.3674C104.944 72.1147 104.727 71.8015 104.588 71.4519C104.448 71.1023 104.391 70.7256 104.419 70.3503C104.419 69.6703 104.419 68.9903 104.419 68.3503C104.419 68.0603 104.419 67.6702 104.839 67.6902C105.259 67.7102 105.219 68.0904 105.229 68.3904C105.229 69.0204 105.229 69.6603 105.229 70.3003C105.2 70.5463 105.228 70.7956 105.309 71.0295C105.39 71.2635 105.523 71.476 105.698 71.6511C105.873 71.8263 106.086 71.9595 106.32 72.0408C106.554 72.122 106.803 72.1492 107.049 72.1204C107.296 72.1528 107.547 72.1327 107.785 72.0615C108.024 71.9904 108.245 71.8696 108.433 71.7073C108.622 71.545 108.775 71.3446 108.881 71.1194C108.987 70.8942 109.044 70.6493 109.049 70.4004C109.119 69.6904 109.049 68.9602 109.099 68.2302C109.099 67.9902 109.099 67.6802 109.499 67.7202C109.899 67.7602 109.799 68.0002 109.799 68.2102C109.819 68.8602 109.819 69.5602 109.819 70.2202Z" fill="black"/>
<path d="M113.381 67.2598C114.022 67.2628 114.643 67.4852 115.14 67.8899C115.35 68.0599 115.591 68.2598 115.441 68.5198C115.291 68.7798 115.01 68.6598 114.79 68.5198C114.629 68.3816 114.451 68.2641 114.26 68.1699C113.819 67.9492 113.314 67.8904 112.833 68.0037C112.353 68.1169 111.927 68.3951 111.631 68.7898C111.304 69.1901 111.133 69.6952 111.149 70.2117C111.166 70.7282 111.369 71.2213 111.72 71.5999C112.051 71.9657 112.496 72.2091 112.982 72.2908C113.468 72.3724 113.968 72.2875 114.401 72.0498C114.771 71.8798 115.2 71.0999 115.51 71.6699C115.82 72.2399 115 72.5498 114.51 72.7598C114.119 72.9387 113.692 73.0274 113.261 73.019C112.831 73.0107 112.408 72.9055 112.024 72.7114C111.639 72.5173 111.303 72.2391 111.041 71.8977C110.779 71.5563 110.597 71.1604 110.508 70.739C110.42 70.3177 110.428 69.8817 110.53 69.4636C110.633 69.0456 110.829 68.6559 111.103 68.3237C111.377 67.9915 111.722 67.7254 112.113 67.5447C112.504 67.364 112.93 67.2733 113.36 67.2798L113.381 67.2598Z" fill="black"/>
<path d="M134.769 68.7604C134.429 68.3904 134.289 68.2305 134.149 68.0905C133.699 67.6105 133.149 67.4704 132.739 68.0204C132.329 68.5704 132.679 69.0204 133.139 69.2804C133.599 69.5404 133.979 69.7104 134.329 70.0004C134.572 70.1812 134.748 70.4368 134.832 70.7277C134.915 71.0186 134.899 71.3288 134.789 71.6105C134.706 71.8749 134.549 72.1099 134.336 72.2872C134.124 72.4646 133.864 72.5769 133.589 72.6105C133.316 72.6724 133.031 72.6523 132.769 72.5526C132.508 72.453 132.282 72.2782 132.119 72.0504C131.979 71.8504 131.799 71.5905 132.009 71.3605C132.219 71.1305 132.439 71.3604 132.599 71.5404C133.059 72.0204 133.599 72.1304 134.009 71.5404C134.419 70.9504 134.099 70.5403 133.529 70.1903C133.108 69.9878 132.711 69.736 132.349 69.4403C132.097 69.2326 131.931 68.9396 131.881 68.6168C131.831 68.2941 131.901 67.9643 132.079 67.6903C132.252 67.3897 132.525 67.1603 132.852 67.0431C133.178 66.9258 133.535 66.9285 133.859 67.0504C134.509 67.2904 134.929 67.7104 134.769 68.7604Z" fill="black"/>
<path d="M117.91 72.4299C116.98 72.7899 116.36 72.5899 116.16 71.6299C115.88 70.2999 116.63 68.8398 115.65 67.5498C115.965 66.9456 116.239 66.321 116.47 65.6799C116.47 65.5199 116.77 65.5397 116.86 65.7297C116.949 65.8731 116.988 66.0419 116.97 66.2097C116.78 67.0497 117.77 67.0297 117.91 67.4797C118.15 68.2497 116.79 67.7298 116.84 68.5498C116.875 69.1459 116.875 69.7437 116.84 70.3398C116.79 71.2198 116.8 72.0699 117.91 72.4299Z" fill="black"/>
<path d="M90.1991 67.2998C90.2861 67.3287 90.3676 67.3729 90.4394 67.43C90.8994 67.86 91.599 66.7598 91.849 67.5398C92.039 68.1498 91.079 68.0097 90.849 68.4397C90.349 69.2297 90.6792 70.1 90.5692 70.93C90.4992 71.43 90.8092 72.3499 90.2392 72.3499C89.4692 72.3499 89.839 71.4299 89.809 70.9099C89.739 69.9099 89.809 68.9598 89.809 67.9898C89.739 67.6698 89.6691 67.2598 90.1991 67.2998Z" fill="black"/>
<path d="M119.131 69.9593C119.131 70.6393 119.131 71.3193 119.131 71.9593C119.131 72.1693 119.05 72.3894 118.78 72.3994C118.727 72.3997 118.674 72.3888 118.625 72.3672C118.576 72.3457 118.533 72.3138 118.497 72.2742C118.461 72.2346 118.434 72.1878 118.417 72.137C118.401 72.0862 118.395 72.0324 118.401 71.9793C118.401 70.5793 118.401 69.1893 118.401 67.7893C118.397 67.7362 118.405 67.683 118.424 67.6336C118.444 67.5842 118.475 67.5399 118.515 67.5042C118.554 67.4685 118.602 67.4422 118.653 67.4275C118.704 67.4128 118.758 67.4102 118.81 67.4195C119.08 67.4195 119.121 67.6894 119.131 67.8894C119.131 68.5694 119.131 69.2494 119.131 69.8894V69.9593Z" fill="black"/>
</svg>
