<svg width="181" height="38" viewBox="0 0 181 38" fill="none" xmlns="http://www.w3.org/2000/svg">
<path d="M88.7099 0.788804C88.3899 0.788804 88.0699 0.788804 87.7099 0.788804C83.8213 0.844126 80.0569 2.16792 76.9897 4.55882C75.197 6.0431 73.7212 7.87258 72.6498 9.93871C71.3305 12.7152 70.6366 15.7476 70.6176 18.8215C70.5986 21.8955 71.2546 24.9361 72.5395 27.7287C73.322 29.4063 74.4034 30.9277 75.7299 32.2187C78.6674 35.1163 82.552 36.8564 86.6698 37.1189C88.1977 37.1655 89.7266 37.122 91.2494 36.9888C94.8403 36.536 98.1933 34.949 100.82 32.4587C103.763 29.5928 105.607 25.7848 106.03 21.6987C106.175 19.9718 106.175 18.2357 106.03 16.5088C105.642 12.3451 103.801 8.45081 100.83 5.50877C97.5498 2.41668 93.197 0.720588 88.6899 0.778794L88.7099 0.788804ZM88.5595 7.31883C89.4261 7.31661 90.2908 7.40375 91.1396 7.57884C95.3096 8.43884 97.9694 11.3389 98.7494 15.8689C99.0595 17.9239 99.0595 20.0138 98.7494 22.0688C97.9094 27.0688 94.7498 30.0688 89.8398 30.5688C88.8416 30.6556 87.8379 30.6556 86.8398 30.5688C84.5574 30.4128 82.405 29.4484 80.7694 27.8489C79.1622 26.1607 78.1604 23.9874 77.9198 21.6689C77.7398 19.8901 77.7398 18.0976 77.9198 16.3188C78.0654 15.3161 78.3131 14.331 78.6596 13.3789C79.136 12.0948 79.8976 10.9355 80.8866 9.98802C81.8756 9.04059 83.0662 8.3298 84.3695 7.90892C85.7153 7.48997 87.1207 7.29397 88.5297 7.32884L88.5595 7.31883Z" fill="#E91F1D"/>
<path d="M163.769 0.809896C162.464 0.75486 161.158 0.86242 159.88 1.12996C156.954 1.687 154.234 3.02482 152.007 5.00179C149.78 6.97876 148.13 9.52126 147.23 12.3599C146.336 15.0748 145.996 17.9413 146.23 20.7899C146.74 26.9999 149.52 31.79 154.23 34.67C156.605 36.0641 159.264 36.9017 162.01 37.12C162.14 37.12 163.169 37.12 164.289 37.12C165.352 37.1334 166.414 37.0764 167.47 36.9498C171.199 36.5281 174.789 35.2851 177.98 33.3099C178.538 32.9815 179.061 32.5962 179.539 32.16C179.539 32.16 178.95 31.0098 178.23 29.6898L176.92 27.2699L176.539 27.5299C171.259 30.8999 163.54 31.8099 158.86 29.6099C155.96 28.2399 154.279 25.8598 153.639 22.2398L153.59 22.0098H180.659V21.8499C180.896 20.2681 180.956 18.665 180.84 17.0699C180.733 15.3006 180.396 13.5528 179.84 11.87C179.044 9.26598 177.575 6.91855 175.58 5.06576C173.585 3.21297 171.135 1.92066 168.48 1.31991C166.945 0.929875 165.363 0.754852 163.78 0.799886L163.769 0.809896ZM163.2 7.26986C164.166 7.24334 165.132 7.29701 166.09 7.43001C167.897 7.68952 169.587 8.48329 170.94 9.7098C172.533 11.262 173.483 13.3582 173.599 15.5799V16.3399H153.519V15.92C153.717 14.2837 154.284 12.7138 155.18 11.3299C155.876 10.3755 156.72 9.53831 157.68 8.84994C158.857 8.10458 160.174 7.60778 161.55 7.38997C162.069 7.31103 162.594 7.2708 163.119 7.26986H163.2Z" fill="#E91F1D"/>
<path d="M116.409 27.6307C116.409 22.3407 116.409 18.6307 116.479 18.1207C116.769 14.5707 117.669 12.2808 119.529 10.4108C120.574 9.40304 121.822 8.63002 123.189 8.14368C124.557 7.65734 126.013 7.46884 127.459 7.5907C128.554 7.55484 129.644 7.7441 130.662 8.14661C131.68 8.54911 132.605 9.15637 133.379 9.93079C134.553 11.193 135.323 12.7774 135.589 14.4806C135.879 15.9106 135.899 16.5708 135.939 22.6808C135.989 30.6808 136.119 33.2307 136.619 35.8407L136.689 36.2506H143.519L143.389 35.4606C143.259 34.6406 143.109 33.3206 142.979 31.6906C142.929 31.1206 142.879 27.6906 142.839 23.0306C142.789 15.4106 142.769 14.8207 142.519 13.0807C142.235 10.6855 141.392 8.39062 140.059 6.38074C138.94 4.87979 137.541 3.60975 135.939 2.64075C134.009 1.61882 131.89 1.00292 129.713 0.830935C127.536 0.658954 125.346 0.934537 123.279 1.64075C121.789 2.15056 120.398 2.91525 119.169 3.90076C118.299 4.63222 117.505 5.44964 116.799 6.3407C116.689 6.51266 116.558 6.67046 116.409 6.81067C116.342 6.55224 116.301 6.28743 116.289 6.02063C116.139 4.69908 115.898 3.38944 115.569 2.10071L115.499 1.83069H108.789L108.879 2.3407C109.234 4.65807 109.431 6.99674 109.469 9.3407C109.469 10.5007 109.539 17.0407 109.539 23.8707V36.3007H116.409V27.6808V27.6307Z" fill="#E91F1D"/>
<path d="M0.129883 1.81055V19.1904H18.6196V1.81055H0.129883ZM4.94971 4.25049H7.38965C8.39199 4.17527 9.39981 4.22581 10.3896 4.40063C11.0918 4.52697 11.734 4.87804 12.2192 5.40112C12.7044 5.9242 13.0063 6.59085 13.0796 7.30054C13.1459 7.80928 13.0608 8.32622 12.835 8.78687C12.6091 9.24751 12.2524 9.63152 11.8096 9.89062L11.5098 10.0906L11.8599 10.1904C12.7295 10.5064 13.4452 11.1433 13.8599 11.9705C14.1137 12.3609 14.2234 12.8279 14.1699 13.2905C14.2269 13.7692 14.1174 14.2531 13.8599 14.6606C13.5461 15.2432 13.086 15.7338 12.5249 16.0845C11.9638 16.4352 11.3208 16.6338 10.6597 16.6606C9.5959 16.757 8.52767 16.7903 7.45996 16.7605H4.98975L4.94971 4.25049ZM7.18994 6.25049V9.45044H7.99951C8.40819 9.4497 8.81638 9.41641 9.21973 9.35059C10.3497 9.11059 10.8197 8.58056 10.7397 7.57056C10.7494 7.33508 10.6866 7.10234 10.5596 6.90381C10.4326 6.70527 10.2476 6.55042 10.0298 6.46045C9.66979 6.28045 9.53967 6.27049 8.40967 6.25049H7.18994ZM7.18994 11.4307V14.8406H8.40967C9.06967 14.8406 9.81959 14.8405 10.0796 14.7905C11.2496 14.6205 11.9097 14.0306 11.9097 13.1106C11.9253 12.8598 11.8661 12.61 11.7397 12.3928C11.6134 12.1757 11.4255 12.0009 11.1997 11.8906C10.386 11.4752 9.46581 11.3149 8.55957 11.4307H7.18994Z" fill="#E91F1D"/>
<path d="M21.4199 1.81055V19.1904H39.9897V1.81055H21.4199ZM26.3496 4.25049H28.7397C31.4397 4.25049 31.7899 4.25045 32.6499 4.71045C33.258 4.98695 33.7601 5.45313 34.0811 6.03906C34.402 6.62499 34.5242 7.29911 34.4297 7.96045C34.3888 8.23717 34.3184 8.50877 34.2197 8.77051C33.9867 9.22257 33.6426 9.60809 33.2197 9.89062C32.9597 10.0306 32.8896 10.1406 33.0596 10.1406C33.6426 10.3382 34.18 10.651 34.6396 11.0605C35.0304 11.4434 35.3151 11.9212 35.4658 12.447C35.6166 12.9729 35.6281 13.5288 35.4995 14.0605C35.3111 14.7072 34.9454 15.2881 34.4434 15.7371C33.9413 16.1861 33.3233 16.4853 32.6597 16.6006C31.5202 16.8196 30.3573 16.8902 29.1997 16.8105H26.3599L26.3496 4.25049ZM28.5796 6.25049V9.50049L29.5796 9.45044C30.0235 9.44423 30.4659 9.39408 30.8999 9.30054C31.2607 9.23073 31.5835 9.03183 31.8081 8.74097C32.0327 8.45011 32.1434 8.08717 32.1196 7.72046C32.1374 7.51943 32.1048 7.31722 32.0244 7.13208C31.9441 6.94694 31.8187 6.78495 31.6597 6.66064C31.2997 6.35064 30.8197 6.25049 29.6597 6.25049H28.5796ZM28.5796 11.4307V14.8906H30.1099C30.7576 14.9392 31.4087 14.8851 32.0396 14.7305C32.3007 14.6691 32.5422 14.5423 32.7407 14.3618C32.9393 14.1814 33.0888 13.9533 33.1748 13.6992C33.2608 13.4451 33.2805 13.1731 33.2324 12.9092C33.1843 12.6452 33.07 12.3979 32.8999 12.1904C32.4099 11.6304 31.7499 11.4805 29.8999 11.4805L28.5796 11.4307Z" fill="#E91F1D"/>
<path d="M42.7998 1.81055V19.1904H61.3398V1.81055H42.7998ZM52.4497 4.10059C53.9233 4.03669 55.3939 4.27839 56.7695 4.81055L57.5298 5.1106V6.28052C57.5298 6.91052 57.5298 7.40063 57.5298 7.40063C57.2326 7.29871 56.942 7.17837 56.6597 7.04053C55.4407 6.35306 54.0587 6.00756 52.6597 6.04053C52.1256 6.02981 51.5941 6.11447 51.0898 6.29053C50.3305 6.52106 49.6423 6.94085 49.0898 7.5105C48.7038 7.9062 48.402 8.37622 48.2026 8.89185C48.0033 9.40747 47.9103 9.95801 47.9297 10.5105C47.9056 11.0688 48.0024 11.6259 48.2129 12.1436C48.4234 12.6612 48.743 13.1274 49.1499 13.5105C49.6438 13.9745 50.2253 14.335 50.8608 14.5703C51.4963 14.8056 52.1726 14.9111 52.8496 14.8806C54.2532 14.877 55.6317 14.5082 56.8496 13.8105L57.6597 13.4006V15.7405L57.1997 16.0005C55.9265 16.5835 54.5399 16.8773 53.1396 16.8606C52.4796 16.8606 51.7598 16.8606 51.5098 16.8606C50.3273 16.7281 49.1998 16.2894 48.2388 15.5879C47.2777 14.8864 46.5164 13.9464 46.0298 12.8606C45.4817 11.5165 45.4249 10.0223 45.8696 8.64062C46.2665 7.51067 46.9559 6.50623 47.8677 5.72974C48.7794 4.95324 49.8808 4.4323 51.0596 4.22046C51.5119 4.1365 51.9699 4.08646 52.4297 4.07056L52.4497 4.10059Z" fill="#E91F1D"/>
</svg>
