<svg width="197" height="25" viewBox="0 0 197 25" fill="none" xmlns="http://www.w3.org/2000/svg">
<path d="M159.18 5.48022V23.6204H164.18V5.48022H171.1V0.850342H152.25V5.48022H159.18ZM64.29 0.850342H59.6802V23.6204H64.6201V9.15039L75.6201 23.6204H79.8804V0.850342H74.9902V14.8503L64.29 0.850342ZM117.83 15.5203H124.42C124.11 17.2503 122.42 19.7903 118.17 19.7903C117.157 19.8214 116.147 19.648 115.201 19.2803C114.256 18.9125 113.394 18.358 112.668 17.6499C111.942 16.9418 111.366 16.0946 110.974 15.1589C110.582 14.2232 110.383 13.2182 110.389 12.2039C110.394 11.1895 110.604 10.1866 111.005 9.25513C111.407 8.32363 111.992 7.48258 112.726 6.78223C113.459 6.08188 114.327 5.53666 115.276 5.17896C116.225 4.82125 117.237 4.6583 118.25 4.7002C119.544 4.7034 120.815 5.03554 121.945 5.66528C123.075 6.29503 124.027 7.2018 124.71 8.30029L128.59 5.89038C127.518 4.11183 126 2.64382 124.187 1.63184C122.373 0.619856 120.327 0.09895 118.25 0.120361C115.012 0.0910351 111.896 1.34772 109.584 3.6145C107.272 5.88128 105.955 8.9727 105.92 12.2102C105.9 13.8131 106.201 15.4039 106.806 16.8884C107.41 18.373 108.307 19.7212 109.441 20.8538C110.575 21.9863 111.925 22.8802 113.411 23.4824C114.896 24.0847 116.488 24.3832 118.09 24.3604C124.42 24.3604 129.38 19.8104 129.38 13.6604V11.0103H117.83V15.5203ZM96.5703 10.5203C93.2803 9.29026 90.04 8.87041 90.04 6.67041C90.04 5.40041 91.3704 4.4502 94.1704 4.4502C96.9069 4.62161 99.5697 5.40781 101.96 6.75024V1.90039C99.4069 0.753435 96.6487 0.131046 93.8501 0.0703125C88.3501 0.0703125 84.6304 2.86039 84.6304 6.90039C84.6304 11.3104 88.3903 12.9003 91.0103 13.8503C94.2903 15.0803 97.4302 15.5302 97.4302 17.7202C97.4302 18.9902 95.9201 19.9402 93.1201 19.9502C90.3731 19.7592 87.7008 18.971 85.29 17.6404V22.5603C87.8518 23.7223 90.6276 24.3388 93.4404 24.3704C99.0004 24.3704 102.84 21.5803 102.84 17.5403C102.84 13.1303 99.1903 11.5403 96.5703 10.5403M43.0903 0.090332C40.686 0.0685897 38.3295 0.762949 36.3213 2.08521C34.313 3.40746 32.7437 5.29765 31.8135 7.51489C30.8833 9.73214 30.6344 12.1761 31.0981 14.5354C31.5619 16.8947 32.7173 19.0627 34.4175 20.7629C36.1177 22.4631 38.2857 23.6188 40.645 24.0825C43.0043 24.5463 45.4483 24.2971 47.6655 23.3669C49.8828 22.4368 51.773 20.8676 53.0952 18.8594C54.4175 16.8511 55.1121 14.4947 55.0903 12.0903C55.0903 8.90773 53.8261 5.85542 51.5757 3.60498C49.3252 1.35454 46.2729 0.090332 43.0903 0.090332ZM42.9902 19.5603C41.5338 19.5761 40.1057 19.1595 38.8862 18.363C37.6668 17.5666 36.7107 16.4263 36.1396 15.0864C35.5686 13.7465 35.4082 12.2672 35.6782 10.8359C35.9483 9.4047 36.6367 8.0858 37.6567 7.04614C38.6768 6.00648 39.9824 5.29288 41.4082 4.99561C42.834 4.69833 44.316 4.8308 45.6665 5.37622C47.017 5.92164 48.1756 6.85549 48.9951 8.05957C49.8146 9.26365 50.2581 10.6839 50.27 12.1404C50.3012 13.1114 50.1353 14.0786 49.7822 14.9836C49.4292 15.8887 48.8967 16.7128 48.2163 17.4062C47.5359 18.0997 46.7219 18.6481 45.8237 19.0183C44.9255 19.3885 43.9617 19.573 42.9902 19.5603M0.900391 23.5603H17.2202V19.0103H5.99023V0.860352H0.990234L0.900391 23.5603ZM190.43 19.1003H179.79V14.3203H189.53C189.47 13.5303 189.42 12.7204 189.42 11.9004C189.42 11.0804 189.42 10.5404 189.51 9.90039H179.79V5.28027H190.31C190.731 3.74942 191.29 2.26002 191.98 0.830322H174.82V23.6003H192.14C191.431 22.1708 190.858 20.6776 190.43 19.1404M21.3203 0.840332H26.3203V23.6003H21.3203V0.840332ZM140.03 0.840332L130.35 23.6104H135.45L137.26 19.1304H147.42L149.23 23.6104H154.47L144.78 0.850342L140.03 0.840332ZM138.96 14.9304L142.34 6.7002L145.74 14.9304H138.96Z" fill="#010101"/>
<path fill-rule="evenodd" clip-rule="evenodd" d="M194.45 1.56055C194.61 1.54936 194.771 1.57332 194.921 1.63062C195.007 1.66154 195.081 1.72082 195.13 1.79883C195.179 1.87684 195.2 1.96896 195.191 2.06055C195.194 2.12565 195.179 2.19034 195.15 2.24829C195.12 2.30624 195.075 2.35547 195.02 2.39063C194.944 2.43726 194.859 2.46773 194.77 2.48047C194.874 2.49812 194.969 2.55021 195.04 2.62818C195.11 2.70614 195.153 2.80565 195.16 2.91065V3.17066C195.152 3.20011 195.152 3.23104 195.16 3.2605H194.87V3.04053C194.87 2.84053 194.871 2.71064 194.711 2.65064C194.603 2.60673 194.487 2.58622 194.37 2.59058H194.131V3.27051H193.83V1.56055H194.43M194.75 1.83057C194.638 1.7778 194.514 1.75368 194.39 1.7605H194.131V2.39063H194.41C194.503 2.40976 194.598 2.40976 194.691 2.39063C194.748 2.37439 194.797 2.33831 194.83 2.28882C194.863 2.23933 194.877 2.17967 194.87 2.12061C194.875 2.07198 194.866 2.02303 194.845 1.97901C194.824 1.93498 194.791 1.89753 194.75 1.87061M195.571 3.57056C195.428 3.72141 195.256 3.84098 195.065 3.92188C194.874 4.00278 194.668 4.04322 194.461 4.04053C194.152 4.03584 193.852 3.94112 193.597 3.76782C193.342 3.59453 193.143 3.35037 193.025 3.06543C192.907 2.78049 192.874 2.46724 192.932 2.16431C192.99 1.86138 193.136 1.58195 193.35 1.3606C193.496 1.21525 193.669 1.10048 193.86 1.02319C194.051 0.945906 194.255 0.907713 194.461 0.910646C194.667 0.905383 194.871 0.942598 195.062 1.02002C195.253 1.09744 195.426 1.21337 195.571 1.3606C195.717 1.50383 195.833 1.67506 195.912 1.86401C195.991 2.05297 196.031 2.25564 196.03 2.46045C196.035 2.66727 195.996 2.87286 195.917 3.06397C195.838 3.25507 195.72 3.42761 195.571 3.57056M193.51 1.5105C193.259 1.76499 193.119 2.10814 193.119 2.46558C193.119 2.82302 193.259 3.16617 193.51 3.42066C193.632 3.55003 193.779 3.65229 193.943 3.72119C194.107 3.79009 194.283 3.82399 194.461 3.82056C194.639 3.82194 194.815 3.78759 194.98 3.71948C195.144 3.65137 195.293 3.55091 195.418 3.42407C195.543 3.29724 195.642 3.14646 195.707 2.98096C195.773 2.81545 195.805 2.63846 195.801 2.46045C195.804 2.28471 195.773 2.11023 195.707 1.94702C195.642 1.78381 195.544 1.63525 195.421 1.5105C195.166 1.2595 194.823 1.1189 194.466 1.1189C194.108 1.1189 193.765 1.2595 193.51 1.5105Z" fill="#010101"/>
</svg>
