<svg width="213" height="52" viewBox="0 0 213 52" fill="none" xmlns="http://www.w3.org/2000/svg">
<path d="M52.2001 25.9805C52.1901 31.0645 50.672 36.0313 47.8378 40.252C45.0036 44.4727 40.9808 47.7575 36.2787 49.6907C31.5766 51.6239 26.4066 52.1183 21.4232 51.1116C16.4399 50.1049 11.8675 47.6425 8.28457 44.0357C4.70159 40.4289 2.26942 35.84 1.2958 30.8501C0.322184 25.8603 0.85105 20.6936 2.81533 16.0044C4.77961 11.3153 8.09062 7.31451 12.33 4.50834C16.5693 1.70217 21.5464 0.216777 26.6303 0.240515C33.434 0.264345 39.9495 2.98929 44.7445 7.8162C49.5396 12.6431 52.2213 19.1768 52.2001 25.9805M18.6103 26.5706V37.2305C18.6002 37.3703 18.6002 37.5108 18.6103 37.6507C18.6144 37.7116 18.6317 37.7707 18.661 37.8243C18.6904 37.8778 18.731 37.9243 18.7802 37.9605C18.8283 38.0006 18.8845 38.0304 18.9447 38.0476C19.005 38.0649 19.0682 38.0692 19.1303 38.0606C19.2674 38.0426 19.3978 37.9912 19.5102 37.9107L21.9999 36.4905L38.3002 27.1707C38.4207 27.109 38.5344 27.0351 38.64 26.9505C38.702 26.906 38.7527 26.8476 38.7875 26.7798C38.8223 26.712 38.8402 26.6368 38.8402 26.5606C38.8402 26.4844 38.8223 26.4092 38.7875 26.3413C38.7527 26.2735 38.702 26.2151 38.64 26.1707L38.4003 26.0205L19.6801 15.3206C19.5559 15.2318 19.4217 15.158 19.2802 15.1006C19.213 15.0686 19.1397 15.052 19.0653 15.052C18.9909 15.052 18.9172 15.0686 18.85 15.1006C18.7852 15.1398 18.7308 15.1938 18.6908 15.2581C18.6508 15.3224 18.6265 15.3951 18.62 15.4705C18.61 15.607 18.61 15.7442 18.62 15.8807V26.5606" fill="#3B8BEF"/>
<path d="M75.92 26.8188L75.5899 27.1887C74.2699 28.6887 72.9399 30.1887 71.5899 31.7187C71.3503 31.9983 71.0893 32.2591 70.8097 32.4987C70.662 32.6495 70.4606 32.7357 70.2496 32.7387C70.1464 32.7382 70.0448 32.7168 69.9503 32.6755C69.8557 32.6342 69.7704 32.574 69.6998 32.4987C69.5118 32.3407 69.3378 32.1667 69.1798 31.9787L64.9801 27.1987C64.9054 27.0814 64.8019 26.9853 64.6798 26.9189C64.6501 27.0371 64.6501 27.1606 64.6798 27.2788V36.0087C64.6798 36.8787 64.5098 37.0087 63.6798 37.0087H60.3199C60.2101 37.0187 60.0996 37.0187 59.9898 37.0087C59.8942 37.0094 59.7993 36.9902 59.7115 36.9524C59.6237 36.9145 59.5452 36.8588 59.4801 36.7888C59.4118 36.7195 59.3591 36.6362 59.3263 36.5446C59.2934 36.4531 59.281 36.3556 59.2896 36.2587V16.2587C59.2715 15.9862 59.2986 15.7124 59.3697 15.4487C59.3888 15.3357 59.4366 15.2296 59.5084 15.1403C59.5802 15.0511 59.6736 14.9815 59.7799 14.9387C59.8846 14.8934 59.9988 14.8752 60.1124 14.8857C60.226 14.8962 60.3352 14.935 60.4298 14.9987C60.7365 15.1777 61.0105 15.4078 61.2398 15.6789L63.5797 18.2187L69.9498 25.1189C70.038 25.2077 70.1215 25.3012 70.1998 25.3989C70.3098 25.5489 70.4096 25.5289 70.5196 25.3989L70.7599 25.1189L79.2398 15.9089C79.4398 15.6889 79.6497 15.4788 79.8697 15.2688C79.9971 15.1481 80.1464 15.053 80.3097 14.9887C80.4034 14.9443 80.5062 14.9213 80.6099 14.9213C80.7137 14.9213 80.816 14.9443 80.9098 14.9887C81.0028 15.0305 81.0852 15.0927 81.151 15.1706C81.2167 15.2485 81.2641 15.34 81.2896 15.4387C81.3362 15.5569 81.3633 15.6819 81.3697 15.8088C81.3697 16.0388 81.3697 16.2687 81.3697 16.4987V35.8989C81.3697 36.1089 81.3697 36.3088 81.3697 36.5188C81.3614 36.6489 81.3078 36.7722 81.2183 36.8671C81.1289 36.9621 81.0094 37.0227 80.88 37.0388C80.747 37.0536 80.613 37.0536 80.4801 37.0388H76.9498C76.8135 37.0536 76.6759 37.0536 76.5396 37.0388C76.4044 37.0208 76.2786 36.9596 76.1812 36.864C76.0839 36.7684 76.0201 36.6437 75.9996 36.5087C75.9851 36.3457 75.9851 36.1818 75.9996 36.0188V26.8088L75.92 26.8188Z" fill="#010101"/>
<path d="M94.4797 21.8804C94.6038 21.8008 94.7011 21.6858 94.7595 21.5503L98.2297 16.1304C98.3282 15.9651 98.4348 15.805 98.5495 15.6504C98.6447 15.5237 98.7665 15.4193 98.9064 15.345C99.0464 15.2707 99.2013 15.2281 99.3596 15.2203H104.119C104.279 15.2004 104.44 15.2004 104.599 15.2203C104.658 15.2256 104.715 15.2447 104.766 15.2759C104.816 15.3072 104.858 15.3499 104.889 15.4004C104.917 15.453 104.931 15.5112 104.931 15.5704C104.931 15.6295 104.917 15.6877 104.889 15.7403C104.82 15.947 104.715 16.14 104.579 16.3104L98.3293 25.5604L98.2194 25.7203C98.0594 25.8903 98.0894 26.0403 98.2194 26.2203L100.699 29.8904L104.749 35.8904C104.849 36.038 104.939 36.1916 105.019 36.3504C105.049 36.4093 105.065 36.4743 105.065 36.5403C105.065 36.6064 105.049 36.6714 105.019 36.7303C104.991 36.7885 104.949 36.8389 104.897 36.8772C104.844 36.9156 104.784 36.9406 104.719 36.9502C104.557 36.9749 104.392 36.9749 104.23 36.9502C102.74 36.9502 101.229 36.9502 99.7595 36.9502C99.4589 36.968 99.1592 36.9017 98.8942 36.7586C98.6293 36.6155 98.4095 36.4015 98.2595 36.1404C97.0495 34.2204 95.8093 32.3305 94.5793 30.4205L94.3596 30.0904C94.2552 30.1788 94.1701 30.2878 94.1096 30.4104L90.4494 36.0904C90.3552 36.2433 90.2516 36.3902 90.1394 36.5303C90.0633 36.6367 89.9649 36.7249 89.8508 36.7889C89.7367 36.8528 89.6101 36.891 89.4797 36.9004C89.3065 36.9104 89.1329 36.9104 88.9597 36.9004H84.6594C84.4811 36.9141 84.3021 36.8971 84.1296 36.8504C84.0723 36.8389 84.0185 36.8147 83.9719 36.7796C83.9252 36.7445 83.8869 36.6993 83.8601 36.6475C83.8332 36.5957 83.8184 36.5384 83.8166 36.48C83.8148 36.4217 83.8257 36.3638 83.8493 36.3104C83.9115 36.1148 84.0139 35.9343 84.1496 35.7803L90.5393 26.3504L90.6296 26.2103C90.8596 25.8603 90.8596 25.9704 90.6296 25.6204L84.2893 16.2002C84.1808 16.0602 84.0872 15.9094 84.0095 15.7503C83.9771 15.6886 83.9602 15.62 83.9602 15.5503C83.9602 15.4807 83.9771 15.4121 84.0095 15.3504C84.0406 15.2882 84.0873 15.2352 84.1452 15.1966C84.2031 15.158 84.2702 15.1352 84.3395 15.1304C84.5156 15.1102 84.6932 15.1102 84.8693 15.1304C86.3193 15.1304 87.7694 15.1304 89.2194 15.1304C89.5586 15.1029 89.8982 15.1765 90.1955 15.3421C90.4928 15.5076 90.7342 15.7575 90.8894 16.0604C91.9694 17.8404 93.0994 19.6104 94.1994 21.3804L94.4895 21.8104" fill="#010101"/>
<path d="M206.27 27.5603C206.311 27.7008 206.383 27.8304 206.48 27.9402L211.72 35.8303C211.876 36.0395 212.004 36.268 212.1 36.5103C212.19 36.7703 212.1 36.9102 211.86 36.9602C211.321 37.0494 210.77 37.0494 210.23 36.9602C210.042 36.9091 209.879 36.7921 209.77 36.6304C209.61 36.4104 209.44 36.1902 209.29 35.9702C207.71 33.5602 206.12 31.1602 204.55 28.7402C204.448 28.555 204.294 28.403 204.108 28.302C203.922 28.201 203.711 28.1554 203.5 28.1704C201.93 28.1704 200.36 28.1704 198.79 28.1704C198.27 28.1704 198.22 28.1702 198.22 28.7402V36.4502C198.22 36.8402 198.1 36.9702 197.72 36.9902C197.387 37.0185 197.053 37.0185 196.72 36.9902C196.38 36.9902 196.28 36.8502 196.25 36.5002V16.0903C196.25 15.2203 196.25 15.1802 197.15 15.1902C199.25 15.1902 201.36 15.1402 203.46 15.1902C204.761 15.2293 206.044 15.5003 207.25 15.9902C208.238 16.3736 209.094 17.0365 209.712 17.8977C210.33 18.7589 210.684 19.7814 210.73 20.8403C210.829 21.7516 210.761 22.6733 210.53 23.5603C210.334 24.3051 209.979 24.9984 209.488 25.5923C208.998 26.1862 208.385 26.6666 207.69 27.0002C207.24 27.2262 206.772 27.4136 206.29 27.5603M198.29 21.6804V25.6804C198.29 26.1704 198.29 26.2102 198.84 26.2102H202.24C202.936 26.2204 203.631 26.1804 204.32 26.0903C205.149 25.9989 205.954 25.7513 206.69 25.3604C207.513 24.9278 208.131 24.1872 208.41 23.3003C208.723 22.328 208.747 21.2861 208.48 20.3003C208.323 19.6891 208.013 19.1278 207.579 18.6694C207.145 18.2111 206.602 17.8709 206 17.6804C204.986 17.3014 203.912 17.1082 202.83 17.1104C201.47 17.1104 200.1 17.1104 198.73 17.1104H198.61C198.569 17.1058 198.528 17.1102 198.489 17.1235C198.45 17.1369 198.414 17.1589 198.385 17.1875C198.355 17.2162 198.332 17.2508 198.317 17.2893C198.303 17.3278 198.297 17.3693 198.3 17.4104V21.6104" fill="#020202"/>
<path d="M152.41 29.26H148.06C147.891 29.2428 147.722 29.2841 147.58 29.377C147.438 29.4698 147.332 29.6085 147.28 29.7701C146.36 31.8301 145.42 33.8702 144.48 35.9202C144.38 36.1402 144.27 36.3601 144.15 36.5801C144.085 36.7081 143.986 36.8163 143.865 36.8936C143.743 36.9709 143.604 37.0146 143.46 37.0201C143.128 37.0585 142.793 37.0585 142.46 37.0201C142.1 36.9501 142.01 36.7802 142.12 36.4302C142.173 36.263 142.236 36.0991 142.31 35.94C145.357 29.3333 148.41 22.7302 151.47 16.1302C151.6 15.8602 151.73 15.5901 151.88 15.3201C151.942 15.2003 152.019 15.0892 152.11 14.99C152.149 14.9414 152.197 14.902 152.252 14.8743C152.308 14.8466 152.368 14.8316 152.43 14.8301C152.492 14.8293 152.554 14.8433 152.61 14.8711C152.666 14.899 152.713 14.9398 152.75 14.99C152.91 15.1634 153.039 15.3631 153.13 15.5801L154.18 17.8001L162.52 35.75C162.641 35.9793 162.739 36.2206 162.81 36.47C162.9 36.79 162.81 36.96 162.51 37.01C162.055 37.1001 161.586 37.1001 161.13 37.01C161.032 36.981 160.94 36.9325 160.861 36.8672C160.782 36.8019 160.717 36.7213 160.67 36.6302C160.55 36.4102 160.44 36.19 160.34 35.97C159.41 33.97 158.48 31.9702 157.56 29.9002L157.43 29.6001C157.391 29.5029 157.324 29.4201 157.236 29.3628C157.148 29.3056 157.045 29.2767 156.94 29.2801H152.43L152.41 29.26ZM152.41 18.6702C152.28 18.7502 152.26 18.88 152.21 18.99L148.64 26.7701C148.41 27.2901 148.43 27.3301 148.98 27.3301H155.78C156.34 27.3301 156.36 27.3301 156.13 26.7901L153.5 21.0601C153.14 20.2601 152.77 19.4702 152.41 18.6802" fill="#040303"/>
<path d="M180.26 26.0688V16.0688C180.26 15.2788 180.26 15.2188 181.09 15.2188H191.83C192.62 15.2188 192.66 15.2188 192.66 16.0688V16.7588C192.666 16.8178 192.659 16.8775 192.638 16.9331C192.617 16.9887 192.583 17.0386 192.54 17.0789C192.502 17.1235 192.454 17.1586 192.4 17.1812C192.347 17.2037 192.288 17.2131 192.23 17.2087C192.093 17.2188 191.956 17.2188 191.82 17.2087H182.62C182.36 17.2087 182.31 17.2788 182.3 17.5288C182.289 17.6118 182.289 17.6958 182.3 17.7788V24.7788C182.295 24.8198 182.3 24.8612 182.313 24.9001C182.326 24.9391 182.348 24.9748 182.377 25.0044C182.406 25.034 182.44 25.0569 182.479 25.0715C182.518 25.0861 182.559 25.0921 182.6 25.0889H190.76C191.56 25.0889 191.61 25.1389 191.61 25.9189V26.5789C191.61 26.8989 191.48 27.0088 191.15 27.0488C191 27.0588 190.85 27.0588 190.7 27.0488H182.61C182.35 27.0488 182.33 27.1089 182.29 27.3789V34.7988C182.289 34.8304 182.296 34.8617 182.308 34.8909C182.32 34.92 182.338 34.9464 182.36 34.9688C182.382 34.9902 182.409 35.0067 182.438 35.0171C182.468 35.0274 182.499 35.0314 182.53 35.0288H191.85C192.62 35.0288 192.7 35.1289 192.7 35.8789C192.715 36.122 192.715 36.3658 192.7 36.6089C192.7 36.8989 192.57 36.9888 192.28 37.0288C192.157 37.0387 192.033 37.0387 191.91 37.0288H181.09C180.37 37.0288 180.28 36.9288 180.28 36.2288V26.0588" fill="#040404"/>
<path d="M109.35 26.0798V15.7498C109.35 15.3198 109.47 15.2297 109.91 15.2097H109.96C112.17 15.2097 114.39 15.1597 116.6 15.2097C117.871 15.246 119.123 15.5244 120.29 16.0298C121.289 16.4463 122.151 17.1364 122.775 18.021C123.4 18.9056 123.762 19.9486 123.82 21.0298C123.939 22.0502 123.871 23.0837 123.62 24.0798C123.375 25.0156 122.915 25.881 122.276 26.6069C121.637 27.3328 120.837 27.8989 119.94 28.2598C118.869 28.7163 117.731 28.9934 116.57 29.0798C115.04 29.2198 113.51 29.1299 111.98 29.1499C111.37 29.1499 111.37 29.1498 111.37 29.7698V36.1699C111.37 36.9399 111.29 37.0098 110.52 37.0098H109.82C109.48 37.0098 109.37 36.8598 109.35 36.5198V26.0598M111.35 22.1499V26.6897C111.35 27.0797 111.41 27.1599 111.76 27.1499C113.3 27.1499 114.86 27.2199 116.39 27.0999C117.414 27.0349 118.414 26.7627 119.33 26.2998C119.887 26.0176 120.375 25.6157 120.758 25.1231C121.142 24.6304 121.412 24.0589 121.55 23.4497C121.69 22.8233 121.73 22.1788 121.67 21.5398C121.658 20.699 121.384 19.8828 120.888 19.2039C120.392 18.525 119.697 18.0169 118.9 17.7498C117.915 17.3803 116.872 17.1906 115.82 17.1897C114.48 17.1897 113.14 17.1897 111.82 17.1897H111.65C111.616 17.184 111.58 17.1866 111.547 17.197C111.514 17.2075 111.485 17.2255 111.46 17.2498C111.411 17.2981 111.379 17.3616 111.37 17.4299V22.1499" fill="#020202"/>
<path d="M168.48 26.8209L170.42 23.5308L174.78 16.1209C175.3 15.2309 175.34 15.2107 176.37 15.2107C176.57 15.2107 176.78 15.2107 176.98 15.2107C177.18 15.2107 177.38 15.3907 177.3 15.7007C177.247 15.8557 177.17 16.0012 177.07 16.1309L170.999 26.1309C170.559 26.8709 170.12 27.6109 169.67 28.3409C169.53 28.558 169.46 28.8128 169.47 29.0709V36.1609C169.47 36.9209 169.38 37.0008 168.62 37.0008H167.99C167.6 37.0008 167.48 36.8508 167.46 36.4708V29.2107C167.467 28.9669 167.4 28.7266 167.269 28.5208C164.803 24.3941 162.33 20.2609 159.85 16.1209C159.758 15.9706 159.678 15.8135 159.61 15.6509C159.52 15.4009 159.61 15.2408 159.89 15.2208C160.391 15.1608 160.898 15.1608 161.4 15.2208C161.502 15.2357 161.599 15.2743 161.685 15.3333C161.77 15.3923 161.84 15.4702 161.89 15.5608C162.04 15.7808 162.17 16.0008 162.3 16.2208L168.3 26.4009C168.37 26.5109 168.44 26.6308 168.55 26.7908" fill="#040404"/>
<path d="M126.79 26.1099V16.1099C126.769 15.9338 126.769 15.756 126.79 15.5799C126.797 15.4834 126.84 15.3932 126.91 15.3267C126.98 15.2602 127.073 15.222 127.17 15.2198C127.579 15.1898 127.99 15.1898 128.4 15.2198C128.65 15.2198 128.75 15.3599 128.78 15.6199C128.79 15.7697 128.79 15.92 128.78 16.0699V34.6599C128.78 34.9699 128.85 35.0198 129.14 35.0298H138.66C139.43 35.0298 139.5 35.1199 139.5 35.9099V36.5198C139.5 36.8798 139.35 36.9998 138.99 37.0398H127.62C126.86 37.0398 126.77 36.9497 126.77 36.1997V26.1099" fill="#060606"/>
</svg>
