<svg width="157" height="43" viewBox="0 0 157 43" fill="none" xmlns="http://www.w3.org/2000/svg">
<path d="M147.84 20.2292L156.15 42.2292C153.7 41.8792 151.26 41.4393 148.76 41.0493L144.09 28.8994L139.28 40.0393C136.92 39.6493 134.6 39.5192 132.28 39.2092L140.72 19.9792L133.06 0.259277H140.15L144.43 11.2593L149.02 0.259277H156.19L147.84 20.2292ZM127.43 0.229248H120.99V38.3494C123.09 38.4794 125.28 38.5693 127.42 38.8293L127.43 0.229248ZM115.43 37.9094C109.57 37.5194 103.72 37.1693 97.73 37.0393V0.229248H104.28V30.8293C108.04 30.9193 111.8 31.2194 115.43 31.3994V37.9094ZM90.73 15.1394V21.6992H81.73V36.5994H75.2598V0.229248H93.6196V6.78931H81.7896V15.1394H90.73ZM64.2798 6.78931V36.9492C62.0998 36.9492 59.8697 36.9493 57.7197 37.0393V6.78931H50.9897V0.229248H71.1396V6.78931H64.2798ZM43.8696 22.0393C40.9796 22.0393 37.5696 22.0394 35.1196 22.1794V31.9294C38.9696 31.6594 42.82 31.3592 46.71 31.2292V37.5593L28.5698 38.9993V0.269287H46.71V6.82935H35.1196V15.6594C37.6596 15.6594 41.5496 15.5293 43.8696 15.5293V22.0894V22.0393ZM7.53955 18.3694V41.2793C5.17955 41.5393 3.07961 41.8492 0.849609 42.1992V0.199219H7.09961L15.6196 24.0293V0.199219H22.1797V39.5593C19.8697 39.9493 17.4998 40.0794 15.0098 40.4294L7.53955 18.3694Z" fill="#E91F1D"/>
</svg>
