<svg width="179" height="56" viewBox="0 0 179 56" fill="none" xmlns="http://www.w3.org/2000/svg">
<path d="M88.6895 55.5603V55.4703C88.7349 55.4146 88.7931 55.3709 88.8594 55.3431C88.9256 55.3152 88.9977 55.3039 89.0693 55.3103C89.7093 55.3103 90.3395 55.3103 90.9795 55.3103C91.0505 55.3091 91.1206 55.3226 91.186 55.3501C91.2515 55.3777 91.3107 55.4186 91.3594 55.4703V55.5603H88.6895Z" fill="#D1EFFA"/>
<path d="M91.3598 55.4906C90.4665 55.4906 89.5765 55.4906 88.6899 55.4906C87.4699 55.4206 86.2497 55.3806 85.0297 55.2906C81.7935 55.0475 78.5808 54.5561 75.4199 53.8207C64.6983 51.3409 54.7816 46.1797 46.5995 38.8207C45.8195 38.1407 45.0895 37.4306 44.3295 36.7206C44.1501 36.5513 44.0073 36.3472 43.9096 36.1207C43.8474 35.9728 43.8294 35.8099 43.8578 35.652C43.8862 35.494 43.9599 35.3476 44.0698 35.2306C44.1749 35.1062 44.3173 35.0196 44.476 34.9835C44.6348 34.9474 44.8011 34.9639 44.9496 35.0306C45.1488 35.1152 45.3426 35.2121 45.5297 35.3207C53.4974 40.242 62.2103 43.8386 71.3295 45.9706C74.3864 46.6814 77.4772 47.2389 80.5898 47.6407C85.0507 48.1902 89.5474 48.3907 94.0395 48.2406C96.4595 48.1706 98.8597 47.9507 101.26 47.6407C106.858 46.9235 112.373 45.6677 117.73 43.8907C120.543 42.9664 123.301 41.8812 125.99 40.6407C126.397 40.4216 126.871 40.3609 127.32 40.4706C127.495 40.5127 127.66 40.5894 127.806 40.6959C127.951 40.8025 128.074 40.9369 128.167 41.0914C128.26 41.2459 128.321 41.4171 128.348 41.5956C128.374 41.774 128.365 41.956 128.32 42.1307C128.296 42.2319 128.259 42.3295 128.21 42.4208C128.034 42.7529 127.784 43.04 127.48 43.2606C124.921 45.2701 122.167 47.0188 119.26 48.4806C113.774 51.2547 107.922 53.2379 101.88 54.3707C98.4029 54.9863 94.8881 55.3638 91.3598 55.5006V55.4906Z" fill="#00A8E1"/>
<path d="M58.4806 10.4788C59.0306 10.1488 59.6106 9.79879 60.2106 9.47879C61.7536 8.68448 63.4767 8.30554 65.2106 8.37894C66.4491 8.37323 67.6389 8.85854 68.5201 9.72879C69.2928 10.5755 69.7334 11.673 69.7604 12.8189C69.7604 13.0589 69.7604 13.2989 69.7604 13.5689V25.0689C69.7604 26.0689 69.6305 26.1988 68.6305 26.1988H65.9904C65.8138 26.2087 65.6371 26.2087 65.4606 26.1988C65.327 26.1851 65.2013 26.1276 65.1036 26.0354C65.006 25.9432 64.9418 25.8214 64.9205 25.6888C64.9006 25.4458 64.9006 25.2017 64.9205 24.9588V14.659C64.9429 14.248 64.8986 13.8358 64.7902 13.4388C64.6983 13.1027 64.5031 12.8042 64.2321 12.5852C63.961 12.3663 63.6283 12.2379 63.2804 12.2188C61.9658 12.1344 60.6514 12.3855 59.4606 12.9488C59.374 12.9702 59.298 13.0231 59.2482 13.097C59.1983 13.1709 59.178 13.2606 59.1906 13.3489V25.0288C59.2104 25.2417 59.2104 25.4561 59.1906 25.669C59.1907 25.7412 59.1761 25.8126 59.1476 25.8789C59.1191 25.9453 59.077 26.0051 59.0245 26.0547C58.9721 26.1044 58.9102 26.1427 58.8424 26.1675C58.7746 26.1923 58.7026 26.2029 58.6305 26.1988C58.3005 26.1988 57.9705 26.1988 57.6305 26.1988H55.2804C54.4604 26.1988 54.2804 25.9988 54.2804 25.1988V14.6988C54.2883 14.3125 54.2515 13.9267 54.1705 13.5489C54.0953 13.1853 53.9008 12.8571 53.6183 12.6162C53.3358 12.3754 52.9813 12.2355 52.6105 12.2188C51.2741 12.1298 49.9375 12.3881 48.7306 12.9688C48.6437 12.9945 48.5694 13.0521 48.5231 13.1299C48.4767 13.2078 48.4618 13.3003 48.4806 13.389V25.2288C48.4806 26.0488 48.3106 26.2288 47.4806 26.2288H44.4806C43.7006 26.2288 43.4806 25.9988 43.4806 25.2288V9.81888C43.4786 9.63978 43.502 9.46128 43.5504 9.28885C43.5978 9.16345 43.6826 9.05569 43.7936 8.9805C43.9046 8.90531 44.0365 8.86645 44.1705 8.86893H46.9503C47.13 8.86927 47.3045 8.93077 47.4445 9.04349C47.5844 9.15621 47.6817 9.31328 47.7203 9.4888C47.8303 9.7988 47.9004 10.089 48.0104 10.419C48.2304 10.419 48.3701 10.259 48.5201 10.179C49.7207 9.37999 51.0607 8.81335 52.4703 8.50882C53.5728 8.28873 54.7077 8.28873 55.8102 8.50882C56.8585 8.73115 57.78 9.35126 58.3805 10.2388L58.5104 10.399C58.5104 10.399 58.5104 10.3988 58.5104 10.4588L58.4806 10.4788Z" fill="#00A8E1"/>
<path d="M104.499 21.5598C104.629 21.1198 104.77 20.6998 104.9 20.2498L107.96 9.94971L108.099 9.5498C108.157 9.36001 108.275 9.19434 108.436 9.07861C108.597 8.96289 108.791 8.90369 108.99 8.90991H112.36C113.2 8.90991 113.36 9.14991 113.09 9.90991L111.76 13.4397C110.27 17.2997 108.76 21.1898 107.3 25.0498L107.139 25.4497C107.065 25.6797 106.915 25.8775 106.713 26.0103C106.511 26.143 106.27 26.203 106.03 26.1799C105.03 26.1799 104.079 26.1799 103.099 26.1799C102.806 26.2116 102.51 26.1371 102.266 25.9702C102.023 25.8034 101.846 25.555 101.769 25.2698C101.219 23.8098 100.639 22.3199 100.079 20.8499C98.7494 17.3699 97.3994 13.8499 96.0794 10.3699C95.9504 10.0961 95.8565 9.80704 95.7996 9.50977C95.7296 9.06977 95.8794 8.83984 96.3294 8.83984C97.5894 8.83984 98.8594 8.83984 100.099 8.83984C100.629 8.83984 100.88 9.19991 101.01 9.65991C101.26 10.5099 101.499 11.3697 101.769 12.2197C102.679 15.2997 103.57 18.4098 104.48 21.4998L104.499 21.5598Z" fill="#232F3E"/>
<path d="M25.6603 11.3301C25.8141 11.2862 25.9481 11.1908 26.0402 11.0601C26.4386 10.66 26.8595 10.2828 27.3005 9.93019C28.4405 9.04962 29.863 8.61555 31.3005 8.70998C31.8805 8.70998 32.0805 8.90998 32.1305 9.45998C32.1305 10.22 32.1305 10.99 32.1305 11.75C32.1486 12.0543 32.1315 12.3597 32.0802 12.6602C32.0777 12.7416 32.0591 12.8215 32.0256 12.8958C31.992 12.97 31.9444 13.0371 31.8849 13.0928C31.8255 13.1485 31.7556 13.192 31.6794 13.2207C31.6031 13.2494 31.522 13.2627 31.4406 13.26C31.1376 13.28 30.8334 13.28 30.5304 13.26C29.0595 13.1592 27.5839 13.3706 26.2004 13.8801C25.8904 13.9901 25.8903 14.21 25.8903 14.46V25.1101C25.9003 25.3033 25.9003 25.4968 25.8903 25.69C25.8826 25.8279 25.8223 25.9579 25.7218 26.0528C25.6214 26.1476 25.4884 26.2002 25.3503 26.2C25.1904 26.21 25.0301 26.21 24.8703 26.2H21.9904C21.8272 26.2097 21.6634 26.2097 21.5002 26.2C21.361 26.186 21.2315 26.1232 21.1344 26.0225C21.0374 25.9217 20.9792 25.7898 20.9704 25.6502C20.9604 25.4703 20.9604 25.29 20.9704 25.1101V10.02C20.9704 9.02004 21.0803 8.88014 22.1003 8.88014H24.2306C24.3464 8.86327 24.4641 8.86948 24.5773 8.8987C24.6905 8.92792 24.7967 8.97955 24.8898 9.05031C24.9829 9.12107 25.0608 9.20953 25.1193 9.31081C25.1778 9.41208 25.2159 9.52414 25.2306 9.64015C25.3806 10.1902 25.5206 10.7501 25.6506 11.3501L25.6603 11.3301Z" fill="#00A8E1"/>
<path d="M129.52 33.8398C130.978 33.8387 132.431 34.0099 133.85 34.3499C134.247 34.4598 134.634 34.6001 135.01 34.7698C135.256 34.8743 135.47 35.0425 135.63 35.2568C135.79 35.4712 135.89 35.724 135.92 35.9898C136.01 36.6223 136.03 37.263 135.98 37.8999C135.69 41.6939 134.519 45.3679 132.56 48.6299C131.853 49.8 130.988 50.8667 129.99 51.7998C129.789 52.0007 129.547 52.1543 129.28 52.2498C129.196 52.2831 129.106 52.2943 129.017 52.2822C128.928 52.2702 128.843 52.2353 128.772 52.1809C128.7 52.1265 128.644 52.0545 128.609 51.9719C128.573 51.8894 128.56 51.799 128.57 51.7097C128.586 51.4834 128.637 51.261 128.72 51.0498C129.5 48.9598 130.26 46.8998 130.85 44.7398C131.203 43.5631 131.458 42.3591 131.61 41.1399C131.655 40.6977 131.655 40.252 131.61 39.8098C131.602 39.4432 131.477 39.0888 131.254 38.7976C131.031 38.5064 130.721 38.2935 130.37 38.1897C129.678 37.9711 128.963 37.8369 128.24 37.7898C126.199 37.6993 124.155 37.7897 122.13 38.0598L119.44 38.3899C119.309 38.4217 119.172 38.414 119.045 38.3677C118.919 38.3214 118.809 38.2386 118.73 38.1299C118.667 38.003 118.64 37.8611 118.652 37.72C118.665 37.5788 118.716 37.4438 118.8 37.3298C118.975 37.0763 119.203 36.8645 119.47 36.7097C121.111 35.5735 122.959 34.7718 124.91 34.3499C126.422 34.0447 127.957 33.874 129.5 33.8398H129.52Z" fill="#00A8E1"/>
<path d="M120.219 17.5601V25.5601C120.224 25.6506 120.209 25.7409 120.176 25.8252C120.142 25.9095 120.091 25.9857 120.025 26.0483C119.96 26.111 119.882 26.1586 119.796 26.1882C119.711 26.2179 119.62 26.2287 119.529 26.22C118.329 26.22 117.16 26.22 115.96 26.22C115.87 26.2319 115.78 26.224 115.694 26.1968C115.608 26.1696 115.529 26.1239 115.463 26.0627C115.397 26.0016 115.346 25.9265 115.313 25.843C115.279 25.7596 115.264 25.6699 115.269 25.5801C115.259 25.4403 115.259 25.3 115.269 25.1602V9.79004C115.269 9.11004 115.469 8.91016 116.149 8.91016H119.349C120.039 8.91016 120.239 9.11004 120.239 9.79004L120.219 17.5601Z" fill="#232F3E"/>
<path d="M34.3203 17.4993V9.61938C34.3203 9.08938 34.5403 8.88937 35.0703 8.85938C36.2303 8.85938 37.38 8.85938 38.54 8.85938C39.05 8.85938 39.2 9.0193 39.25 9.5293C39.26 9.7225 39.26 9.91617 39.25 10.1094V24.8894C39.25 25.1394 39.25 25.3794 39.25 25.6294C39.2339 25.7642 39.1714 25.889 39.0728 25.9822C38.9741 26.0754 38.8459 26.131 38.7104 26.1394C38.5873 26.1493 38.4635 26.1493 38.3403 26.1394H35.25C35.1469 26.1493 35.0435 26.1493 34.9404 26.1394C34.7883 26.1285 34.6444 26.0643 34.5347 25.9583C34.425 25.8522 34.3564 25.711 34.3403 25.5593C34.3305 25.3828 34.3305 25.2058 34.3403 25.0293C34.3403 22.5593 34.3403 20.0293 34.3403 17.4993H34.3203Z" fill="#00A8E1"/>
<path d="M36.9 0.921071C37.2399 0.905917 37.5795 0.95676 37.9 1.07097C38.4724 1.25665 38.9594 1.64091 39.273 2.15447C39.5867 2.66802 39.7062 3.27701 39.6099 3.87102C39.5661 4.431 39.3336 4.95948 38.9503 5.37005C38.567 5.78061 38.0552 6.04894 37.4996 6.13103C37.007 6.22092 36.5024 6.22092 36.0098 6.13103C35.3648 6.03909 34.7816 5.69698 34.3868 5.17864C33.992 4.66029 33.8173 4.00734 33.9 3.36101C34.04 1.78101 35.08 0.921071 36.9 0.921071V0.921071Z" fill="#00A8E1"/>
<path d="M117.75 0.921106C118.201 0.879854 118.656 0.955592 119.07 1.14108C119.494 1.3023 119.861 1.58247 120.129 1.94796C120.397 2.31345 120.554 2.74849 120.58 3.20089C120.75 5.20089 119.4 6.20089 117.58 6.20089C117.334 6.19562 117.089 6.16562 116.85 6.11105C116.196 5.98735 115.619 5.60916 115.244 5.05978C114.869 4.5104 114.727 3.83483 114.85 3.18112C114.91 2.58349 115.183 2.02757 115.621 1.61593C116.058 1.20429 116.63 0.964426 117.23 0.940881C117.383 0.91588 117.538 0.91588 117.69 0.940881L117.75 0.921106Z" fill="#232F3E"/>
<path d="M17.6899 15.68C17.5946 14.5281 17.3001 13.4013 16.8198 12.35C16.4339 11.41 15.8301 10.5751 15.0581 9.91442C14.2861 9.25372 13.3682 8.78607 12.3799 8.54992C11.2338 8.28425 10.0423 8.28024 8.89453 8.5382C7.74671 8.79616 6.6717 9.30943 5.74951 10.0399C5.60954 10.1719 5.45151 10.2832 5.27979 10.37C5.27979 10.37 5.18994 10.3699 5.18994 10.3099C5.11994 10.0799 5.07977 9.86001 5.00977 9.64001C4.99384 9.52489 4.95548 9.41397 4.89648 9.31384C4.83749 9.2137 4.75899 9.12624 4.66602 9.05651C4.57304 8.98678 4.46714 8.93618 4.35449 8.90759C4.24185 8.87899 4.12474 8.87306 4.00977 8.89001C3.34977 8.89001 2.65977 8.89001 2.00977 8.89001C1.76904 8.8513 1.5225 8.87104 1.29102 8.94762C1.05954 9.0242 0.849835 9.15531 0.679688 9.32995C0.679688 17.0999 0.679688 24.89 0.679688 32.64C0.813029 32.8413 1.00282 32.9989 1.2251 33.0931C1.44738 33.1874 1.69231 33.2141 1.92969 33.17C2.72969 33.17 3.52982 33.17 4.31982 33.17C5.71982 33.17 5.71973 33.1699 5.71973 31.7999V25.4698C5.71973 25.3198 5.65957 25.1399 5.80957 24.9999C6.92857 25.8678 8.27029 26.4017 9.67969 26.5399C10.6144 26.6643 11.5649 26.5829 12.4648 26.3014C13.3648 26.0198 14.1925 25.545 14.8896 24.91C15.9827 23.9105 16.7816 22.6308 17.1997 21.2098C17.7401 19.4195 17.9071 17.5375 17.6899 15.68V15.68ZM12.3799 20.2799C12.2361 20.9585 11.887 21.5765 11.3799 22.0499C10.8265 22.5383 10.1178 22.8147 9.37988 22.8299C8.25499 22.8976 7.13316 22.6519 6.13965 22.12C6.02 22.0686 5.91912 21.9813 5.85107 21.8702C5.78302 21.7592 5.75126 21.6298 5.75977 21.4999V17.4999C5.75977 16.1699 5.75977 14.8299 5.75977 13.4999C5.74895 13.3515 5.78688 13.2036 5.86816 13.079C5.94945 12.9543 6.06979 12.8599 6.20996 12.8099C7.38278 12.2063 8.7214 12.0059 10.0195 12.2399C10.4783 12.301 10.9136 12.4794 11.2832 12.7579C11.6528 13.0365 11.9447 13.4058 12.1299 13.8299C12.4705 14.5411 12.6677 15.3125 12.71 16.1C12.8867 17.5044 12.795 18.9296 12.4399 20.2999L12.3799 20.2799Z" fill="#00A8E1"/>
<path d="M178.321 16.169V16.2588C178.276 16.2157 178.244 16.1613 178.228 16.1013C178.212 16.0414 178.213 15.9784 178.231 15.919V15.7488V15.5288H178.28C178.228 15.1066 178.144 14.6888 178.03 14.2788C177.716 12.9032 177.017 11.6454 176.015 10.6521C175.013 9.65879 173.749 8.97108 172.37 8.66895C170.981 8.33605 169.541 8.28151 168.131 8.5088C166.738 8.64295 165.413 9.17551 164.316 10.0427C163.218 10.91 162.393 12.0753 161.941 13.3989C160.916 16.1017 160.916 19.0861 161.941 21.7888C162.331 22.9505 163.016 23.9909 163.929 24.8079C164.843 25.6248 165.953 26.1901 167.151 26.4487C168.517 26.7867 169.936 26.8616 171.33 26.669C173.146 26.4997 174.84 25.6852 176.106 24.3733C177.372 23.0614 178.126 21.3389 178.231 19.5188V19.5188V19.2087C178.231 19.0787 178.231 18.9689 178.321 18.8789C178.313 18.8527 178.313 18.825 178.321 18.7988V16.2388V16.169ZM172.99 20.3889C172.862 20.8492 172.652 21.2828 172.37 21.669C172.129 22.0125 171.815 22.2981 171.45 22.5056C171.085 22.7131 170.679 22.8372 170.26 22.8689C169.843 22.9388 169.417 22.9388 169 22.8689C168.542 22.7828 168.112 22.5854 167.747 22.2942C167.383 22.003 167.095 21.6269 166.91 21.1987C166.582 20.5101 166.379 19.7686 166.31 19.0088C166.16 17.7043 166.221 16.3841 166.49 15.0989C166.611 14.5801 166.814 14.0838 167.091 13.6289C167.33 13.2362 167.66 12.9066 168.053 12.6682C168.447 12.4298 168.891 12.2894 169.35 12.2588C169.771 12.1889 170.2 12.1889 170.62 12.2588C171.053 12.3503 171.458 12.5406 171.805 12.8147C172.152 13.0888 172.431 13.4393 172.62 13.8389C173.003 14.623 173.221 15.4773 173.26 16.3489C173.286 16.7452 173.286 17.1426 173.26 17.5388C173.33 18.4997 173.225 19.4653 172.95 20.3889H172.99Z" fill="#232F3E"/>
<path d="M139.399 1.07031H136.319C135.469 1.07031 135.319 1.23031 135.319 2.07031V9.26025C135.319 9.42025 135.379 9.57022 135.269 9.73022C135.069 9.73022 134.959 9.57022 134.809 9.48022C133.75 8.8 132.535 8.40079 131.279 8.32031C130.023 8.23983 128.767 8.48076 127.629 9.02026C126.007 9.83807 124.767 11.2545 124.169 12.9702C123.562 14.609 123.296 16.355 123.389 18.1003C123.389 19.7415 123.769 21.3604 124.499 22.8303C124.873 23.6309 125.408 24.3457 126.071 24.9307C126.733 25.5156 127.509 25.958 128.349 26.2302C129.482 26.6117 130.692 26.7054 131.871 26.5029C133.049 26.3004 134.158 25.8082 135.099 25.0703C135.249 24.9803 135.339 24.8303 135.539 24.7803C135.654 25.0284 135.735 25.2908 135.779 25.5603C135.824 25.7329 135.925 25.8857 136.066 25.9944C136.207 26.1031 136.381 26.1616 136.559 26.1604H137.089C137.889 26.1604 138.669 26.1604 139.449 26.1604C140.069 26.1604 140.249 25.9603 140.269 25.3203V1.9104C140.269 1.2304 140.069 1.07031 139.399 1.07031V1.07031ZM135.339 17.4104V21.4104C135.358 21.5391 135.332 21.67 135.267 21.7825C135.201 21.8949 135.1 21.9822 134.98 22.0303C133.927 22.6365 132.701 22.8723 131.499 22.7002C130.998 22.645 130.518 22.4664 130.103 22.1802C129.687 21.894 129.349 21.5092 129.119 21.0603C128.775 20.355 128.565 19.5922 128.499 18.8103C128.328 17.4156 128.42 16.0014 128.769 14.6404C128.873 14.2612 129.021 13.8954 129.21 13.5503C129.443 13.1276 129.778 12.77 130.185 12.5098C130.592 12.2496 131.057 12.095 131.539 12.0603C132.712 11.9605 133.891 12.1674 134.96 12.6604C135.089 12.7086 135.199 12.7987 135.271 12.9165C135.344 13.0343 135.375 13.1729 135.359 13.3103C135.359 14.6803 135.359 16.0204 135.359 17.3704L135.339 17.4104Z" fill="#232F3E"/>
<path d="M77.92 18.94C79.5704 19.2485 81.2615 19.2722 82.92 19.01C83.8934 18.8864 84.8355 18.5848 85.6997 18.1201C86.1804 17.8593 86.6045 17.5058 86.9478 17.0801C87.2911 16.6544 87.5467 16.1651 87.6997 15.6401C88.1348 14.3139 88.0293 12.8694 87.4058 11.6206C86.7823 10.3718 85.6912 9.41926 84.3697 8.96998C82.9464 8.50055 81.4359 8.35709 79.9497 8.55006C78.3567 8.65703 76.8381 9.26492 75.6114 10.2869C74.3847 11.3088 73.5126 12.6925 73.1197 14.24C72.4331 16.4931 72.416 18.8973 73.0699 21.1602C73.3747 22.5149 74.0788 23.7468 75.0913 24.697C76.1039 25.6472 77.3782 26.2718 78.7496 26.49C80.428 26.8264 82.1551 26.8434 83.8399 26.5401C84.7343 26.3894 85.6119 26.1517 86.46 25.8301C86.6963 25.7709 86.903 25.6275 87.0411 25.4268C87.1792 25.2261 87.2392 24.9819 87.21 24.74C87.21 24.2 87.21 23.6501 87.21 23.1001C87.21 22.5501 86.9498 22.2301 86.2998 22.3801C85.6498 22.5301 85.0397 22.6701 84.3897 22.8101C83.0128 23.0802 81.5966 23.0802 80.2198 22.8101C79.3121 22.6352 78.5024 22.1286 77.9478 21.3892C77.3932 20.6497 77.1335 19.7304 77.2198 18.8101C77.4198 18.8101 77.6499 18.8602 77.8399 18.9002L77.92 18.94ZM77.3697 15.5501C77.4422 15.0207 77.5833 14.5029 77.7896 14.01C78.0574 13.3248 78.5462 12.7483 79.1783 12.3716C79.8103 11.9949 80.5497 11.8397 81.2798 11.9302C81.6816 11.9511 82.077 12.0387 82.4497 12.19C82.7247 12.315 82.9617 12.5104 83.1372 12.7561C83.3128 13.0019 83.4206 13.2895 83.4497 13.5901C83.5115 13.9772 83.4878 14.3731 83.3799 14.75C83.2465 15.1003 83.0171 15.406 82.7183 15.6323C82.4195 15.8587 82.0633 15.9965 81.69 16.03C81.2201 16.1504 80.7329 16.1911 80.2496 16.1502C79.3725 16.1486 78.4971 16.0815 77.6299 15.95C77.2999 15.95 77.2999 15.9501 77.3399 15.5501H77.3697Z" fill="#00A8E1"/>
<path d="M152.809 19.1704C154.11 19.1071 155.382 18.7661 156.539 18.1704C157.124 17.8841 157.632 17.4625 158.022 16.9409C158.411 16.4192 158.671 15.8123 158.78 15.1704C158.95 14.3659 158.95 13.5346 158.78 12.7302C158.587 11.8106 158.146 10.9615 157.504 10.2756C156.862 9.58962 156.044 9.09323 155.139 8.84028C154.068 8.51113 152.949 8.36913 151.829 8.42036C150.088 8.35994 148.378 8.89014 146.976 9.925C145.575 10.9599 144.565 12.4385 144.11 14.1203C143.369 16.5498 143.4 19.1493 144.2 21.5602C144.541 22.7354 145.194 23.7966 146.088 24.6325C146.982 25.4684 148.084 26.048 149.28 26.3102C150.368 26.5774 151.489 26.692 152.61 26.6503C154.24 26.6181 155.852 26.3102 157.38 25.7402C157.639 25.6916 157.869 25.5424 158.018 25.3251C158.168 25.1078 158.226 24.8401 158.18 24.5803V22.9802C158.18 22.3402 157.889 22.1202 157.249 22.2702C156.759 22.4102 156.299 22.5203 155.809 22.6303C154.319 22.9899 152.771 23.0408 151.26 22.7802C150.558 22.6875 149.9 22.3833 149.375 21.9081C148.85 21.433 148.482 20.8096 148.32 20.1203C148.209 19.6729 148.129 19.2184 148.079 18.7602C148.185 18.7504 148.292 18.7677 148.389 18.8102C149.852 19.0898 151.344 19.1806 152.829 19.0803L152.809 19.1704ZM148.17 15.6103C148.275 14.7456 148.58 13.9171 149.059 13.1901C149.429 12.7003 149.929 12.3233 150.501 12.1008C151.073 11.8783 151.696 11.8193 152.3 11.9304C152.41 11.9304 152.5 11.9304 152.61 11.9304C152.911 11.9656 153.201 12.0691 153.456 12.2329C153.712 12.3967 153.927 12.6164 154.085 12.8757C154.243 13.1349 154.34 13.4267 154.368 13.729C154.397 14.0312 154.356 14.3361 154.249 14.6203C154.133 15.0043 153.901 15.3425 153.583 15.5881C153.266 15.8336 152.881 15.9741 152.48 15.9902C152.026 16.0859 151.563 16.1263 151.099 16.1103C150.202 16.0896 149.307 16.0128 148.42 15.8803C148.22 15.8803 148.13 15.7703 148.17 15.5703V15.6103Z" fill="#232F3E"/>
</svg>
