<svg width="91" height="105" viewBox="0 0 91 105" fill="none" xmlns="http://www.w3.org/2000/svg">
<path d="M81.8691 84.5607C81.8803 84.605 81.8808 84.6514 81.8706 84.696C81.8604 84.7405 81.8398 84.782 81.8105 84.817C81.7813 84.8521 81.7446 84.8798 81.7026 84.8979C81.6607 84.9159 81.6149 84.9238 81.5693 84.9208C81.0793 84.9208 80.5691 84.9208 80.0991 84.9208H13.5093C12.8193 84.9208 12.0893 85.1208 11.5093 84.6408C11.4054 84.7227 11.3084 84.8131 11.2192 84.9108L10.6895 84.4308V0.900788C11.0395 0.580788 11.4792 0.770661 11.8892 0.770661C34.7025 0.770661 57.5127 0.770661 80.3193 0.770661C80.8393 0.770661 81.5392 0.310758 81.9092 1.12076H22.4692C22.5727 1.31622 22.7149 1.48864 22.8867 1.62784C23.0586 1.76704 23.2566 1.8702 23.4692 1.93082C24.5642 2.47109 25.4073 3.4145 25.8213 4.56314C26.2352 5.71178 26.188 6.97619 25.6895 8.09073C25.5117 8.65794 25.1514 9.15061 24.665 9.49234C24.1787 9.83407 23.5929 10.0056 22.999 9.98062H21.2192C20.5093 9.41442 19.9439 8.68798 19.5693 7.86075C19.5093 6.44075 19.569 5.09079 20.769 4.15079C19.899 3.20079 19.679 3.15072 18.769 3.58072C18.0454 3.83075 17.4349 4.33039 17.0464 4.99014C16.6579 5.6499 16.5171 6.42669 16.6494 7.18082C16.775 7.3388 16.8885 7.50593 16.9893 7.68082C18.0593 10.2308 20.3895 11.1808 22.6895 12.1708C24.5295 12.1708 26.2591 12.9108 28.0991 12.9308C28.5191 12.9308 29.0991 12.7706 29.3491 12.9906C29.9691 13.5106 30.699 13.0607 31.249 13.3307C31.9049 13.6097 32.6185 13.7265 33.3291 13.6708C37.3291 13.7308 41.3994 13.4207 45.3994 14.3607C46.1813 14.5499 46.9322 14.8495 47.6294 15.2506C48.3494 15.6606 48.4994 16.4407 49.0894 16.8007V19.0407C48.5994 19.4407 48.7091 20.4007 47.7891 20.3407C46.9791 21.3407 45.7895 21.2508 44.7295 21.4008C43.9081 21.4021 43.0888 21.3081 42.2891 21.1208C40.7691 20.9708 39.2891 20.6107 37.8091 20.3307C35.3691 19.8707 33.0792 18.9307 30.6992 18.3307C29.4492 18.0107 28.2393 17.5107 27.0093 17.1007C27.5644 18.1923 28.2676 19.2018 29.0991 20.1007C30.5549 21.806 31.8067 23.6754 32.8291 25.6708C33.2091 25.1908 33.5792 24.7807 33.8892 24.3207C34.329 23.8329 34.8677 23.4444 35.4692 23.1808C36.5507 22.4058 37.8829 22.0631 39.2041 22.2204C40.5253 22.3777 41.7401 23.0234 42.6094 24.0307C43.9222 25.6778 44.6501 27.7146 44.6792 29.8207C44.6969 31.1312 44.5899 32.4404 44.3594 33.7306C44.057 35.4902 43.6016 37.2202 42.999 38.9008C42.489 40.2408 41.8992 41.5308 41.4092 42.9008C41.0092 43.9908 40.299 44.9006 39.999 46.0006C39.6068 47.1353 39.1081 48.2302 38.5093 49.2707C38.4493 49.4007 38.3794 49.4507 38.5894 49.5607H39.3491C40.3491 48.5607 41.4493 47.4307 42.5493 46.3607C45.9394 43.2496 48.8927 39.694 51.3291 35.7907C52.5856 33.4862 53.5597 31.0385 54.2295 28.5006C54.6123 26.9889 54.7637 25.428 54.6792 23.8708C54.6223 22.1217 54.0671 20.425 53.0791 18.9806C52.1928 17.8587 51.2449 16.787 50.2393 15.7707V15.0006C50.7393 15.0006 51.029 14.5806 51.519 14.4806C53.339 14.1306 55.1595 13.7506 56.9795 13.4806C58.7995 13.2106 60.6491 12.2907 62.5991 12.2907C65.0891 11.1907 67.8192 10.6508 70.1592 9.1608C71.0792 8.5808 72.0993 8.16069 73.0093 7.55069C73.8303 7.15152 74.7069 6.87839 75.6094 6.74063C76.1194 7.06063 76.7394 7.1408 77.1294 7.6608V8.77066C75.5894 10.7707 73.3093 11.2807 71.3193 12.3007C69.5893 12.3007 68.1294 13.3808 66.4194 13.4108C65.9194 13.9508 64.8091 13.5207 64.5991 14.6007C64.7691 15.0607 65.2095 15.3707 65.4595 15.8507C66.4404 17.8832 67.0339 20.0807 67.2095 22.3307C67.2122 23.5205 67.0881 24.7072 66.8394 25.8708C66.7045 27.1944 66.3672 28.4893 65.8394 29.7106C64.7329 32.2217 63.1811 34.5119 61.2593 36.4706C59.6741 38.1439 58.0053 39.736 56.2593 41.2406C54.3593 42.8606 52.1692 44.1108 50.4092 45.8908C47.1392 47.6908 44.4691 50.3007 41.5591 52.5707C39.8846 53.9746 38.405 55.5956 37.1592 57.3908C36.6725 57.9708 36.2151 58.5747 35.7891 59.2006C35.1691 60.2006 34.7091 61.2006 34.0791 62.2006C33.49 63.2539 33.113 64.4125 32.9692 65.6107C32.7192 67.1137 32.7192 68.6478 32.9692 70.1508C33.1082 71.0589 33.3704 71.9436 33.749 72.7807C34.2305 73.6492 34.8258 74.4497 35.519 75.1608C36.0531 75.7866 36.6808 76.3261 37.3794 76.7607C38.3076 77.4389 39.3966 77.8628 40.5391 77.9906C42.1791 77.9906 43.9092 78.4107 45.4092 77.3007C45.5292 77.2107 45.769 77.3007 46.019 77.3007C47.019 76.0707 48.3894 75.1708 49.1494 73.6508C49.7667 72.1201 50.0101 70.4643 49.8594 68.8207H50.8594L52.1392 70.2106C52.5992 70.7006 53.029 71.2108 53.519 71.6608C54.009 72.1108 53.5195 73.2207 54.2295 73.7707C54.3695 76.2507 54.0391 78.5907 52.3091 80.5307C52.0143 80.8209 51.7711 81.159 51.5894 81.5307C51.4594 81.8307 50.819 81.9707 50.499 82.3407C49.7622 83.1819 48.7604 83.7462 47.6592 83.9406C47.2592 84.0106 47.0891 84.2606 46.8291 84.6906L81.8691 84.5607Z" fill="#E91F1D"/>
<path d="M56.0596 103.8V102.46C56.3696 102.22 56.67 102.36 56.96 102.34L57.4897 102.86L57.1396 103.25C57.1712 103.3 57.2137 103.344 57.2637 103.376C57.3136 103.409 57.3697 103.43 57.4287 103.439C57.4877 103.447 57.5483 103.443 57.6055 103.426C57.6626 103.409 57.7151 103.379 57.7598 103.34C58.4185 102.607 58.8342 101.688 58.9497 100.71C59.343 99.1497 59.7829 97.6099 60.2695 96.0899C60.379 95.6449 60.4329 95.188 60.4297 94.7298C60.2797 94.4098 59.7597 94.7299 59.7197 94.3399C59.6946 94.2456 59.6994 94.1458 59.7334 94.0545C59.7674 93.9631 59.829 93.8846 59.9097 93.8299C60.8458 93.3666 61.5637 92.5554 61.9097 91.5698C62.2497 90.5098 63.4095 90.3199 64.2495 89.8799C64.5696 89.7115 64.9345 89.6469 65.293 89.6953C65.6514 89.7437 65.9856 89.9026 66.2495 90.1499C66.8895 89.8299 67.5396 89.3998 68.0996 90.2998C68.0996 91.2998 68.0998 91.2998 67.5098 92.0298C66.6235 91.8649 65.7606 91.5928 64.9399 91.2197C64.8599 90.8197 65.5298 90.5299 65.0298 90.1399C64.2098 90.1399 63.2098 91.6898 63.0298 93.2998C63.1698 93.6098 63.6695 93.2997 63.7495 93.7197C63.7488 93.8897 63.6929 94.0547 63.5898 94.1897C63.3098 94.6497 62.6597 94.4797 62.4297 94.9697C61.8993 97.127 61.2313 99.2481 60.4297 101.32C59.9432 102.277 59.262 103.122 58.4297 103.8H56.0596Z" fill="#E91F1D"/>
<path d="M81.8691 1.17019C81.9127 1.15704 81.9592 1.15463 82.0039 1.16335C82.0486 1.17207 82.0905 1.19142 82.126 1.21999C82.1614 1.24856 82.189 1.28535 82.207 1.32717C82.2251 1.36899 82.2331 1.41458 82.2295 1.45998C82.2295 1.94998 82.2295 2.45996 82.2295 2.93996V82.8301C82.2295 83.3201 82.2295 83.8301 82.2295 84.3101C82.2331 84.3555 82.2251 84.4011 82.207 84.4429C82.189 84.4847 82.1614 84.5215 82.126 84.5501C82.0905 84.5786 82.0486 84.5982 82.0039 84.607C81.9592 84.6157 81.9127 84.6133 81.8691 84.6001V1.17019Z" fill="#E91F1D"/>
<path d="M48.9897 99.0005C48.9897 100.38 47.7399 100.271 46.9399 100.781C46.6799 100.781 46.5995 100.161 46.0395 100.621V99.0005C46.0757 99.0109 46.114 99.0134 46.1513 99.0076C46.1886 99.0018 46.2244 98.988 46.2558 98.9671C46.2872 98.9461 46.3137 98.9184 46.3334 98.8862C46.3531 98.854 46.3652 98.818 46.3696 98.7805C46.3696 98.7805 46.2897 98.6607 46.2597 98.6707C46.2222 98.675 46.1859 98.6873 46.1537 98.707C46.1215 98.7267 46.0941 98.7533 46.0732 98.7847C46.0522 98.8161 46.0384 98.8516 46.0326 98.8889C46.0268 98.9262 46.0291 98.9642 46.0395 99.0005H45.6698C45.8298 97.8705 46.8496 97.1906 47.1196 96.0706V94.3406C46.8396 94.1706 46.7597 93.7906 46.3197 93.8306C45.7723 94.1434 45.362 94.65 45.1698 95.2505C44.7898 96.4305 44.0898 97.5306 44.1698 98.8106C44.4798 99.1706 44.7595 99.5106 45.2695 99.3706C45.0195 100.211 44.1798 100.371 43.6498 100.771C43.0098 100.581 42.5497 100.191 42.2997 99.0706C42.2197 97.4506 42.4796 96.0705 45.4096 93.5005H46.9897L47.6796 94.1904C47.9396 94.0604 47.8196 93.7706 47.9296 93.5706C48.3296 93.3506 48.7598 93.5005 49.1698 93.4605C49.3398 93.5805 49.3198 93.7604 49.3598 93.9404C49.3874 94.6438 49.2065 95.3396 48.8398 95.9404C48.4098 97.0104 48.2798 98.1505 47.8398 99.2205C47.8005 99.3054 47.7931 99.4015 47.8188 99.4915C47.8445 99.5814 47.9017 99.6592 47.9799 99.7105C48.4499 99.5605 48.5397 99.0205 48.9897 99.0005Z" fill="#E91F1D"/>
<path d="M71.1597 99.3712V99.9212C70.6097 100.341 69.8497 100.351 69.4297 100.921L68.3398 99.5911C69.0998 96.7411 70.2699 93.7712 70.8599 90.6612L70.0498 90.3812C71.0498 90.3812 71.8797 89.5511 72.9897 89.8311C73.1197 91.0111 72.4399 91.961 72.1499 92.971C71.7365 94.7431 71.1711 96.4763 70.46 98.1512C70.2775 98.6679 70.3058 99.2355 70.5396 99.731C70.7996 99.641 70.8597 99.3112 71.1597 99.3712Z" fill="#E91F1D"/>
<path d="M27.1294 96.3994C25.6294 97.3994 25.559 99.0694 25.019 100.399H23.2793C24.1793 97.2494 25.089 94.1094 26.019 90.8694C25.859 90.6094 25.429 90.4692 25.019 90.2092C26.019 90.3392 26.8891 89.8292 27.8691 89.6992C27.9698 90.2807 27.8968 90.8792 27.6592 91.4194C27.3461 92.6932 26.9623 93.9485 26.5093 95.1794C26.3193 95.5594 26.5394 96.0694 27.1294 96.3994Z" fill="#E91F1D"/>
<path d="M54.2001 93.4609C53.5001 94.5609 53.5 95.741 53.1 96.801C52.5 98.391 52.1003 100.071 51.5703 101.681C51.4161 102.195 51.1268 102.658 50.7329 103.022C50.3389 103.386 49.8544 103.638 49.33 103.751H47.6401C47.3701 103.011 47.6404 102.551 48.2304 102.321C48.6404 102.321 48.7399 102.691 48.9999 102.861L48.6503 103.241C48.7603 103.411 48.92 103.451 49.31 103.411C50.17 100.411 51.0501 97.4111 51.9501 94.3311L51.3002 94.1011C51.3002 93.7311 51.7104 93.7309 51.7304 93.4609H54.2001Z" fill="#E91F1D"/>
<path d="M87.2993 100.421L88.5493 99.541C88.2402 98.6513 87.6938 97.8629 86.9692 97.261C85.7492 96.031 85.6891 95.661 86.3291 93.981C86.5791 93.741 87.0492 93.8509 87.2192 93.4609H90.5493C91.1593 94.1609 90.2792 94.621 90.1992 95.271C89.957 94.7271 89.5863 94.2502 89.1191 93.8811H87.8091V95.1711C88.2291 95.5911 88.8093 96.0811 89.2593 96.6211C89.6727 96.9955 89.9306 97.5113 89.9824 98.0667C90.0343 98.622 89.876 99.1766 89.5391 99.6211C89.2498 100.102 88.8011 100.465 88.271 100.648C87.7408 100.831 87.1631 100.821 86.6392 100.621C86.0392 100.381 85.4291 100.731 84.8691 100.371C85.4491 99.8111 85.0291 99.0312 85.3291 98.1812C85.6091 98.7812 85.8093 99.2609 86.0693 99.7109C86.3293 100.161 86.9893 100.151 87.2993 100.421Z" fill="#E91F1D"/>
<path d="M30.5503 98.9996C30.6703 99.8696 29.9902 100.06 29.4102 100.32C28.8302 100.58 28.4901 100.56 27.6001 99.9396C27.6001 99.7596 27.6001 99.5197 27.6001 99.2897C27.5887 99.1108 27.6091 98.9314 27.6602 98.7596C28.1883 97.5397 28.6166 96.2789 28.9404 94.9896L28.52 94.6398C28.01 94.8298 27.8505 95.5498 27.2305 95.6398C27.4129 94.9624 27.8267 94.3702 28.4004 93.9664C28.9741 93.5627 29.6709 93.3729 30.3701 93.4298L30.9102 93.9596C31.1102 95.9596 29.8002 97.6297 29.4502 99.5997C29.9902 99.7497 30.0603 98.9496 30.5503 98.9996Z" fill="#E91F1D"/>
<path d="M19.8203 100.5C20.1247 100.096 20.2648 99.5926 20.2129 99.0898C20.1609 98.5871 19.9205 98.1225 19.54 97.7898C19.0546 97.2493 18.5405 96.7352 18 96.2498V94.3799L18.8701 93.5098H22.79C22.19 94.1598 22.5604 94.9098 22.3804 95.5098C22.3204 95.5598 22.2502 95.6399 22.2402 95.6299C21.9402 95.3999 22.1103 95.0699 22.0303 94.6299L21.0303 93.7698C20.7281 93.6818 20.4047 93.7039 20.1172 93.832C19.8297 93.9602 19.597 94.1861 19.4604 94.4697C20.2902 95.392 21.0457 96.3786 21.7202 97.4199V99.5598C21.2319 100.107 20.5512 100.443 19.8203 100.5V100.5Z" fill="#E91F1D"/>
<path d="M6.18945 99C6.18945 99.12 6.23945 99.2801 6.18945 99.3501C5.31945 100.35 4.84938 101.66 3.60938 102.35V96.6802C3.60938 95.4002 3.50906 95.18 2.28906 93.79C3.34906 94.24 4.13936 92.7901 5.08936 94.0801C4.87936 95.8101 5.70949 97.5402 5.47949 99.4302C5.82949 99.2702 5.88945 98.94 6.18945 99Z" fill="#E91F1D"/>
<path d="M80.3904 96.0396C79.4206 97.3328 78.7606 98.8313 78.4607 100.42H76.8103C76.7515 100.367 76.7097 100.298 76.6902 100.221C76.6706 100.145 76.6742 100.064 76.7004 99.9895C77.0521 98.5031 77.5064 97.0431 78.0603 95.6196C78.148 95.4676 78.1946 95.2952 78.1946 95.1196C78.1946 94.9441 78.148 94.7716 78.0603 94.6196C77.4903 94.8296 77.3307 95.5497 76.7107 95.6797C76.7107 95.3797 76.7104 95.1096 76.9504 94.8596C77.4504 94.4196 77.9003 93.9295 78.3103 93.5195H80.0705C79.9005 94.3595 80.3506 95.1996 79.6906 95.8896C79.9006 96.1496 80.1704 95.9996 80.3904 96.0396Z" fill="#E91F1D"/>
<path d="M81.4902 94.5598C81.6102 94.0498 82.1503 93.8798 82.3403 93.5098H83.9902C84.5902 95.6198 83.1504 97.3398 82.9404 99.5898L84.0601 98.4897C84.0601 99.7697 83.18 99.9999 82.52 100.35C82.3744 100.439 82.2128 100.498 82.0439 100.523C81.8751 100.548 81.7028 100.539 81.5376 100.496C81.3724 100.453 81.2173 100.377 81.082 100.273C80.9468 100.169 80.8337 100.039 80.75 99.8899C81.27 98.1899 81.75 96.4598 82.29 94.8198C81.99 94.4498 81.7202 94.6198 81.4902 94.5598Z" fill="#E91F1D"/>
<path d="M67.1098 99.0008C67.1098 100.371 65.8895 100.381 65.0195 100.741C64.8895 100.471 64.4497 100.551 64.1797 100.331C64.0751 99.342 64.2521 98.3436 64.6899 97.4508C65.1199 96.5008 65.2299 95.3809 65.6899 94.3609L64.9697 94.1109C64.8697 93.8809 64.7499 94.1108 64.9199 93.9908C65.7622 93.4621 66.777 93.2827 67.7495 93.4908C67.0495 95.5708 66.6195 97.6409 65.7495 99.8309C66.5295 99.5609 66.6398 99.0408 67.1098 99.0008Z" fill="#E91F1D"/>
<path d="M76.29 96.5611C75.17 97.4711 75.17 99.1112 74.5 100.411H72.7402C73.3502 98.4112 73.8203 96.4112 74.5303 94.6812C74.4003 94.0112 73.9105 94.331 73.7305 93.941C74.7305 93.791 75.5505 93.1411 76.7305 93.5611L75.9805 95.701C75.8905 96.061 76.37 95.9411 76.29 96.5611Z" fill="#E91F1D"/>
<path d="M13.9897 93.8298C14.0971 93.8628 14.201 93.9062 14.2997 93.9597C14.4019 94.0364 14.4989 94.1199 14.5898 94.2097L14.8398 93.5098H16.4496L14.6698 99.5098C14.9698 99.8898 15.2396 99.7298 15.4696 99.7798C15.4467 99.9551 15.3683 100.119 15.246 100.246C15.1237 100.374 14.9637 100.459 14.7895 100.49C14.4395 100.49 14.3394 100.88 13.9994 100.89C13.6594 100.9 13.5394 100.06 12.9994 100.56C12.8994 100.07 12.7797 99.7299 13.0697 99.4099C13.3597 99.0899 13.4798 98.7999 12.8998 98.6699C12.8998 98.4899 12.8198 98.2399 12.8998 98.1299C13.3664 97.526 13.7035 96.8327 13.891 96.093C14.0785 95.3533 14.1122 94.583 13.9897 93.8298V93.8298Z" fill="#E91F1D"/>
<path d="M39.4902 96.3104C38.6702 97.6304 38.4901 99.0705 37.8301 100.411H35.9902C36.5543 98.9669 37.032 97.4908 37.4204 95.9904C37.6107 95.6805 37.6933 95.3164 37.6553 94.9547C37.6173 94.593 37.461 94.254 37.2104 93.9904C37.5596 93.7374 37.959 93.5627 38.3818 93.4782C38.8046 93.3936 39.2406 93.4012 39.6602 93.5004C39.7102 94.4504 38.4502 95.2304 39.4902 96.3104Z" fill="#E91F1D"/>
<path d="M12.0904 99.3693V99.9194C11.6004 100.329 10.8903 100.319 10.4503 100.819C10.2103 100.679 10.0605 100.339 9.71053 100.469C8.71053 99.2092 9.26053 97.9992 9.71053 96.7192C10.3286 95.4583 11.2039 94.3409 12.2804 93.4392C12.7704 93.6692 13.4603 93.0893 13.9303 93.8293C13.5803 93.8793 13.2101 93.7193 12.7701 94.0293C11.9901 95.4793 11.0005 97.0293 10.9605 98.7893C11.3105 99.1693 11.5804 99.5593 12.0904 99.3693Z" fill="#E91F1D"/>
<path d="M6.99 98.1489C6.9 97.0889 7.63998 96.5689 7.71998 95.8089C7.76998 95.2689 7.23976 95.1389 6.99976 94.8089V93.5589C7.30529 93.4032 7.65772 93.365 7.98951 93.4517C8.3213 93.5383 8.60965 93.7436 8.80006 94.0288C8.93006 95.5588 7.87 96.7089 6.99 98.1489Z" fill="#E91F1D"/>
<path d="M53.2301 89.8196C53.4639 89.745 53.7158 89.7508 53.946 89.8359C54.1761 89.9211 54.3707 90.0808 54.4997 90.2895C54.5697 90.8795 54.7698 91.5795 53.8898 91.9795C53.2998 92.1495 52.9498 91.5595 52.4298 91.5195C51.9898 90.5595 52.8401 90.2796 53.2301 89.8196Z" fill="#E91F1D"/>
<path d="M39.3799 96.1489C39.4705 95.6103 39.6686 95.0954 39.9624 94.635C40.2562 94.1746 40.6396 93.7779 41.0898 93.4688H41.8696C42.1796 93.9887 41.8695 94.5588 42.0195 94.9988L41.5498 95.6089C40.9798 95.7789 40.8797 95.3288 40.6597 95.3088C39.9897 95.2888 39.8899 95.9389 39.3799 96.1489Z" fill="#E91F1D"/>
<path d="M3.41001 102.681C3.39224 103.03 3.2602 103.363 3.03404 103.63C2.80787 103.896 2.50046 104.08 2.15904 104.154C1.81761 104.228 1.46096 104.188 1.14487 104.039C0.828791 103.89 0.570596 103.641 0.410012 103.331C0.347897 103.229 0.307392 103.115 0.290383 102.996C0.273374 102.878 0.280075 102.757 0.310891 102.641C0.341706 102.525 0.395868 102.417 0.469582 102.322C0.543296 102.228 0.63526 102.149 0.74009 102.091C0.816184 102.019 0.906944 101.964 1.0062 101.93C1.10546 101.896 1.21089 101.884 1.31529 101.894C1.41968 101.905 1.52062 101.937 1.61118 101.99C1.70175 102.043 1.7799 102.115 1.84019 102.201C2.17019 102.741 2.69001 102.711 3.41001 102.681Z" fill="#E91F1D"/>
<path d="M18.9901 100.419H16.9901C16.7101 99.5589 17.5401 99.0189 17.3001 98.1289C17.7901 98.4989 17.6102 98.8289 17.4002 99.3689L18.9901 100.419Z" fill="#E91F1D"/>
<path d="M80.3902 96.0396C80.3611 95.9184 80.3574 95.7926 80.3794 95.6699C80.4015 95.5473 80.449 95.4303 80.5186 95.3269C80.5882 95.2235 80.6785 95.1358 80.7837 95.0691C80.889 95.0024 81.0072 94.9582 81.1304 94.9395C81.1595 95.0606 81.1628 95.1867 81.1407 95.3093C81.1186 95.432 81.0716 95.5487 81.002 95.6521C80.9324 95.7555 80.8422 95.8435 80.7369 95.9102C80.6316 95.9768 80.5134 96.0208 80.3902 96.0396V96.0396Z" fill="#E91F1D"/>
<path d="M6.91962 97.8906C6.94881 98.0117 6.95273 98.1373 6.93134 98.26C6.90995 98.3827 6.86354 98.4997 6.79511 98.6038C6.72668 98.7078 6.63757 98.7967 6.53339 98.865C6.42922 98.9332 6.31237 98.9793 6.18964 99.0005C6.16046 98.8794 6.15605 98.7538 6.17744 98.6311C6.19882 98.5084 6.24523 98.3914 6.31367 98.2874C6.3821 98.1833 6.47121 98.0944 6.57538 98.0261C6.67956 97.9579 6.7969 97.9118 6.91962 97.8906V97.8906Z" fill="#E91F1D"/>
<path d="M15.4205 99.7905C15.37 99.5539 15.4068 99.3069 15.5245 99.0955C15.6422 98.884 15.8324 98.7224 16.0602 98.6406C16.3202 99.3606 15.8305 99.5605 15.4205 99.7905Z" fill="#E91F1D"/>
<path d="M19.8501 100.469C19.4701 100.979 19.1102 100.979 18.7402 100.469H19.8501Z" fill="#E91F1D"/>
<path d="M81.4991 94.5605C81.5079 94.6111 81.5048 94.663 81.4893 94.7119C81.4739 94.7608 81.4465 94.8053 81.4102 94.8416C81.374 94.8778 81.3298 94.9049 81.2809 94.9204C81.2319 94.9359 81.18 94.9394 81.1295 94.9307C81.1195 94.6807 81.2391 94.5605 81.4991 94.5605Z" fill="#E91F1D"/>
<path d="M27.23 95.6803C27.23 95.9303 27.1199 96.0501 26.8599 96.0401C26.8499 95.7901 26.99 95.6703 27.23 95.6803Z" fill="#E91F1D"/>
<path d="M12.8302 98.6305C12.8415 98.6814 12.8399 98.7344 12.8253 98.7845C12.8107 98.8346 12.7841 98.8802 12.7472 98.9171C12.7103 98.954 12.6645 98.9809 12.6144 98.9955C12.5643 99.01 12.5115 99.0117 12.4606 99.0004C12.4492 98.9494 12.4509 98.8964 12.4654 98.8463C12.48 98.7962 12.5067 98.7506 12.5436 98.7137C12.5805 98.6768 12.6263 98.6499 12.6764 98.6354C12.7265 98.6208 12.7793 98.6191 12.8302 98.6305V98.6305Z" fill="#E91F1D"/>
<path d="M76.3301 96.0401C76.3301 95.7901 76.4402 95.6703 76.7002 95.6803C76.7102 95.9303 76.5801 96.0501 76.3301 96.0401Z" fill="#E91F1D"/>
<path d="M45.69 99.0006C45.6988 99.0511 45.6953 99.103 45.6798 99.1519C45.6643 99.2008 45.6369 99.2453 45.6007 99.2816C45.5644 99.3179 45.5202 99.3449 45.4713 99.3604C45.4224 99.3759 45.3705 99.3795 45.3199 99.3707C45.3099 99.1107 45.43 98.9906 45.69 99.0006Z" fill="#E91F1D"/>
<path d="M30.55 98.9998C30.5396 98.9635 30.5374 98.9255 30.5432 98.8882C30.549 98.8509 30.5628 98.8153 30.5837 98.7839C30.6046 98.7525 30.6321 98.726 30.6643 98.7063C30.6965 98.6866 30.7322 98.6743 30.7697 98.6699C30.7697 98.6699 30.8901 98.7498 30.8801 98.7798C30.8757 98.8173 30.8632 98.8533 30.8435 98.8855C30.8238 98.9177 30.7972 98.9454 30.7658 98.9663C30.7344 98.9872 30.6991 99.001 30.6618 99.0068C30.6245 99.0126 30.5863 99.0102 30.55 98.9998V98.9998Z" fill="#E91F1D"/>
<path d="M12.4596 98.9996C12.4709 99.0506 12.4688 99.1036 12.4542 99.1537C12.4396 99.2038 12.413 99.2493 12.3761 99.2862C12.3392 99.3231 12.2934 99.3503 12.2433 99.3649C12.1932 99.3794 12.1404 99.3811 12.0895 99.3697C12.0781 99.3188 12.0798 99.2658 12.0943 99.2157C12.1089 99.1656 12.1361 99.12 12.173 99.0831C12.2099 99.0462 12.2552 99.0191 12.3053 99.0045C12.3554 98.9899 12.4087 98.9883 12.4596 98.9996V98.9996Z" fill="#E91F1D"/>
<path d="M71.1602 99.3707C71.1602 99.1107 71.2703 98.9906 71.5303 99.0006C71.5416 99.0515 71.54 99.1045 71.5254 99.1546C71.5108 99.2047 71.4837 99.2503 71.4468 99.2872C71.4099 99.3241 71.3646 99.3512 71.3145 99.3658C71.2643 99.3804 71.2111 99.382 71.1602 99.3707Z" fill="#E91F1D"/>
<path d="M48.9904 98.9998C48.98 98.9635 48.9778 98.9255 48.9836 98.8882C48.9894 98.8509 49.0032 98.8153 49.0241 98.7839C49.0451 98.7525 49.0725 98.726 49.1047 98.7063C49.1369 98.6866 49.1732 98.6743 49.2107 98.6699C49.2107 98.6699 49.3305 98.7498 49.3205 98.7798C49.3162 98.8173 49.3036 98.8533 49.2839 98.8855C49.2642 98.9177 49.2377 98.9454 49.2063 98.9663C49.1749 98.9872 49.1395 99.001 49.1023 99.0068C49.065 99.0126 49.0267 99.0102 48.9904 98.9998V98.9998Z" fill="#E91F1D"/>
<path d="M67.0998 98.9998C67.0894 98.9635 67.0872 98.9255 67.093 98.8882C67.0988 98.8509 67.1126 98.8153 67.1335 98.7839C67.1544 98.7525 67.1819 98.726 67.2141 98.7063C67.2463 98.6866 67.2825 98.6743 67.32 98.6699C67.32 98.6699 67.4299 98.7498 67.4299 98.7798C67.4256 98.8173 67.413 98.8533 67.3933 98.8855C67.3736 98.9177 67.3475 98.9454 67.3161 98.9663C67.2847 98.9872 67.2489 99.001 67.2116 99.0068C67.1743 99.0126 67.1361 99.0102 67.0998 98.9998V98.9998Z" fill="#E91F1D"/>
<path d="M71.5295 98.9998C71.5191 98.9635 71.5169 98.9255 71.5227 98.8882C71.5285 98.8509 71.5423 98.8153 71.5632 98.7839C71.5841 98.7525 71.6116 98.726 71.6438 98.7063C71.676 98.6866 71.7117 98.6743 71.7492 98.6699C71.7492 98.6699 71.8596 98.7498 71.8596 98.7798C71.8552 98.8173 71.8427 98.8533 71.823 98.8855C71.8033 98.9177 71.7767 98.9454 71.7453 98.9663C71.7139 98.9872 71.6786 99.001 71.6413 99.0068C71.604 99.0126 71.5658 99.0102 71.5295 98.9998V98.9998Z" fill="#E91F1D"/>
<path d="M3.59972 102.32C3.59972 102.58 3.49009 102.7 3.23009 102.69C3.21874 102.639 3.2204 102.586 3.23497 102.536C3.24955 102.486 3.2762 102.44 3.3131 102.403C3.35 102.366 3.39581 102.339 3.44591 102.325C3.49601 102.31 3.54879 102.309 3.59972 102.32V102.32Z" fill="#E91F1D"/>
</svg>
