<svg width="50" height="40" viewBox="0 0 50 40" fill="none" xmlns="http://www.w3.org/2000/svg">
<path fill-rule="evenodd" clip-rule="evenodd" d="M0 0.833333C0 0.373096 0.373095 0 0.833333 0H49.1667C49.6269 0 50 0.373096 50 0.833333V7.5C50 7.96024 49.6269 8.33333 49.1667 8.33333H0.833333C0.373096 8.33333 0 7.96024 0 7.5V0.833333ZM4.07405 5.55245C4.34813 5.73558 4.67036 5.83333 5 5.83333C5.44203 5.83333 5.86595 5.65774 6.17851 5.34518C6.49107 5.03262 6.66667 4.60869 6.66667 4.16667C6.66667 3.83703 6.56892 3.5148 6.38578 3.24072C6.20265 2.96663 5.94235 2.75301 5.63781 2.62687C5.33326 2.50072 4.99815 2.46772 4.67485 2.53202C4.35155 2.59633 4.05458 2.75507 3.82149 2.98816C3.5884 3.22124 3.42967 3.51821 3.36536 3.84152C3.30105 4.16482 3.33405 4.49993 3.4602 4.80447C3.58635 5.10902 3.79997 5.36931 4.07405 5.55245ZM9.07405 5.55245C9.34813 5.73558 9.67036 5.83333 10 5.83333C10.442 5.83333 10.866 5.65774 11.1785 5.34518C11.4911 5.03262 11.6667 4.60869 11.6667 4.16667C11.6667 3.83703 11.5689 3.5148 11.3858 3.24072C11.2026 2.96663 10.9423 2.75301 10.6378 2.62687C10.3333 2.50072 9.99815 2.46772 9.67485 2.53202C9.35155 2.59633 9.05458 2.75507 8.82149 2.98816C8.5884 3.22124 8.42967 3.51821 8.36536 3.84152C8.30105 4.16482 8.33405 4.49993 8.4602 4.80447C8.58635 5.10902 8.79997 5.36931 9.07405 5.55245ZM14.074 5.55245C14.3481 5.73558 14.6704 5.83333 15 5.83333C15.442 5.83333 15.866 5.65774 16.1785 5.34518C16.4911 5.03262 16.6667 4.60869 16.6667 4.16667C16.6667 3.83703 16.5689 3.5148 16.3858 3.24072C16.2026 2.96663 15.9423 2.75301 15.6378 2.62687C15.3333 2.50072 14.9982 2.46772 14.6748 2.53202C14.3515 2.59633 14.0546 2.75507 13.8215 2.98816C13.5884 3.22124 13.4297 3.51821 13.3654 3.84152C13.301 4.16482 13.3341 4.49993 13.4602 4.80447C13.5863 5.10902 13.8 5.36931 14.074 5.55245Z" fill="white"/>
<path fill-rule="evenodd" clip-rule="evenodd" d="M0 12.5C0 12.0398 0.373095 11.6667 0.833333 11.6667H49.1667C49.6269 11.6667 50 12.0398 50 12.5V39.1667C50 39.6269 49.6269 40 49.1667 40H0.833333C0.373096 40 0 39.6269 0 39.1667V12.5ZM21.6231 31.1358C21.5493 30.927 21.4347 30.7349 21.2858 30.5708L16.8915 25.5409C16.6168 25.2265 16.6172 24.7572 16.8925 24.4433L21.2842 19.4342C21.4344 19.2705 21.5504 19.0785 21.6254 18.8694C21.7003 18.6603 21.7327 18.4383 21.7207 18.2165C21.7086 17.9947 21.6523 17.7775 21.5551 17.5778C21.4579 17.378 21.3218 17.1997 21.1547 17.0533C20.9876 16.9069 20.7929 16.7955 20.5821 16.7254C20.3713 16.6553 20.1486 16.6281 19.9271 16.6454C19.7057 16.6626 19.4899 16.7239 19.2924 16.8258C19.095 16.9276 18.9199 17.0679 18.7775 17.2383L12.4641 24.4399C12.1888 24.7539 12.1884 25.2231 12.4631 25.5376L18.7758 32.7633C18.9184 32.9329 19.0933 33.0723 19.2904 33.1735C19.4874 33.2746 19.7027 33.3355 19.9236 33.3525C20.1444 33.3695 20.3665 33.3423 20.5767 33.2725C20.7869 33.2027 20.9811 33.0917 21.148 32.946C21.3148 32.8003 21.4509 32.6227 21.5483 32.4238C21.6458 32.2249 21.7025 32.0085 21.7154 31.7873C21.7282 31.5662 21.6968 31.3447 21.6231 31.1358ZM30.7713 33.1735C30.9684 33.0723 31.1433 32.9329 31.2858 32.7633L37.5987 25.5342C37.8733 25.2198 37.8729 24.7506 37.5977 24.4367L31.2842 17.235C31.1417 17.0645 30.9667 16.9243 30.7692 16.8224C30.5718 16.7206 30.356 16.6593 30.1345 16.642C29.9131 16.6248 29.6904 16.652 29.4796 16.7221C29.2688 16.7921 29.0741 16.9036 28.907 17.05C28.7399 17.1964 28.6037 17.3747 28.5065 17.5744C28.4093 17.7742 28.3531 17.9913 28.341 18.2132C28.3289 18.435 28.3613 18.657 28.4363 18.8661C28.5113 19.0752 28.6273 19.2672 28.7775 19.4308L33.1695 24.4433C33.4446 24.7573 33.445 25.2264 33.1703 25.5407L28.7758 30.5708C28.627 30.7349 28.5123 30.927 28.4386 31.1358C28.3648 31.3447 28.3334 31.5662 28.3463 31.7873C28.3591 32.0085 28.4159 32.2249 28.5133 32.4238C28.6108 32.6227 28.7469 32.8003 28.9137 32.946C29.0805 33.0917 29.2747 33.2027 29.485 33.2725C29.6952 33.3423 29.9172 33.3695 30.1381 33.3525C30.359 33.3355 30.5742 33.2746 30.7713 33.1735Z" fill="white"/>
</svg>
