<svg width="38" height="40" viewBox="0 0 38 40" fill="none" xmlns="http://www.w3.org/2000/svg">
<path d="M35.4667 0H2.53333V3.87097H35.4667V0Z" fill="white"/>
<path d="M35.4667 24.5161H36.7333C37.0693 24.5161 37.3915 24.6521 37.629 24.8941C37.8665 25.136 38 25.4642 38 25.8064C38 26.1487 37.8665 26.4769 37.629 26.7188C37.3915 26.9608 37.0693 27.0968 36.7333 27.0968H21.85L30.0833 36.5161C30.3101 36.7728 30.4275 37.1107 30.4097 37.4555C30.3918 37.8004 30.2403 38.1238 29.9883 38.3548C29.7364 38.5858 29.4047 38.7054 29.0662 38.6873C28.7277 38.6691 28.4101 38.5147 28.1833 38.2581L20.2667 29.2258V38.7097C20.2667 39.0519 20.1332 39.3801 19.8957 39.6221C19.6581 39.8641 19.3359 40 19 40C18.6641 40 18.3419 39.8641 18.1043 39.6221C17.8668 39.3801 17.7333 39.0519 17.7333 38.7097V29.2258L9.81667 38.3226C9.58991 38.5792 9.27234 38.7336 8.93384 38.7518C8.59534 38.7699 8.26362 38.6503 8.01167 38.4194C7.75971 38.1884 7.60816 37.8649 7.59034 37.52C7.57252 37.1752 7.68991 36.8373 7.91667 36.5806L16.15 27.0968H1.26667C0.930726 27.0968 0.608544 26.9608 0.370998 26.7188C0.133452 26.4769 0 26.1487 0 25.8064C0 25.4642 0.133452 25.136 0.370998 24.8941C0.608544 24.6521 0.930726 24.5161 1.26667 24.5161H2.53333V6.45161H35.4667V24.5161Z" fill="white"/>
</svg>
