<svg width="50" height="40" viewBox="0 0 50 40" fill="none" xmlns="http://www.w3.org/2000/svg">
<path fill-rule="evenodd" clip-rule="evenodd" d="M0 8.33333V0H50V8.33333H0ZM4.07405 5.55245C4.34813 5.73558 4.67036 5.83333 5 5.83333C5.44203 5.83333 5.86595 5.65774 6.17851 5.34518C6.49107 5.03262 6.66667 4.60869 6.66667 4.16667C6.66667 3.83703 6.56892 3.5148 6.38578 3.24072C6.20265 2.96663 5.94235 2.75301 5.63781 2.62687C5.33326 2.50072 4.99815 2.46772 4.67485 2.53202C4.35155 2.59633 4.05458 2.75507 3.82149 2.98816C3.5884 3.22124 3.42967 3.51821 3.36536 3.84152C3.30105 4.16482 3.33405 4.49993 3.4602 4.80447C3.58635 5.10902 3.79997 5.36931 4.07405 5.55245ZM9.07405 5.55245C9.34813 5.73558 9.67036 5.83333 10 5.83333C10.442 5.83333 10.866 5.65774 11.1785 5.34518C11.4911 5.03262 11.6667 4.60869 11.6667 4.16667C11.6667 3.83703 11.5689 3.5148 11.3858 3.24072C11.2026 2.96663 10.9423 2.75301 10.6378 2.62687C10.3333 2.50072 9.99815 2.46772 9.67485 2.53202C9.35155 2.59633 9.05458 2.75507 8.82149 2.98816C8.5884 3.22124 8.42967 3.51821 8.36536 3.84152C8.30105 4.16482 8.33405 4.49993 8.4602 4.80447C8.58635 5.10902 8.79997 5.36931 9.07405 5.55245ZM14.074 5.55245C14.3481 5.73558 14.6704 5.83333 15 5.83333C15.442 5.83333 15.866 5.65774 16.1785 5.34518C16.4911 5.03262 16.6667 4.60869 16.6667 4.16667C16.6667 3.83703 16.5689 3.5148 16.3858 3.24072C16.2026 2.96663 15.9423 2.75301 15.6378 2.62687C15.3333 2.50072 14.9982 2.46772 14.6748 2.53202C14.3515 2.59633 14.0546 2.75507 13.8215 2.98816C13.5884 3.22124 13.4297 3.51821 13.3654 3.84152C13.301 4.16482 13.3341 4.49993 13.4602 4.80447C13.5863 5.10902 13.8 5.36931 14.074 5.55245Z" fill="white"/>
<path d="M50 11.6667H0V40H50V11.6667Z" fill="white"/>
</svg>
