<svg width="50" height="40" viewBox="0 0 50 40" fill="none" xmlns="http://www.w3.org/2000/svg">
<path fill-rule="evenodd" clip-rule="evenodd" d="M0 1C0 0.447716 0.447708 0 1 0H49C49.5523 0 50 0.447716 50 1V7.33334C50 7.88562 49.5523 8.33334 49 8.33334H1C0.447708 8.33334 0 7.88562 0 7.33334V1ZM4.07405 5.55245C4.34813 5.73559 4.67036 5.83334 5 5.83334C5.44203 5.83334 5.86595 5.65774 6.17851 5.34518C6.49107 5.03262 6.66667 4.6087 6.66667 4.16666C6.66667 3.83703 6.56892 3.5148 6.38579 3.24072C6.20265 2.96663 5.94235 2.75301 5.6378 2.62687C5.33327 2.50072 4.99815 2.46772 4.67485 2.53202C4.35155 2.59633 4.05458 2.75507 3.82149 2.98816C3.58839 3.22124 3.42967 3.51821 3.36536 3.84151C3.30106 4.16482 3.33406 4.49993 3.46021 4.80447C3.58635 5.10902 3.79997 5.36932 4.07405 5.55245ZM9.07405 5.55245C9.34813 5.73559 9.67036 5.83334 10 5.83334C10.442 5.83334 10.866 5.65774 11.1785 5.34518C11.4911 5.03262 11.6667 4.6087 11.6667 4.16666C11.6667 3.83703 11.5689 3.5148 11.3858 3.24072C11.2027 2.96663 10.9424 2.75301 10.6378 2.62687C10.3333 2.50072 9.99815 2.46772 9.67485 2.53202C9.35155 2.59633 9.05458 2.75507 8.82149 2.98816C8.58839 3.22124 8.42967 3.51821 8.36536 3.84151C8.30106 4.16482 8.33406 4.49993 8.46021 4.80447C8.58635 5.10902 8.79997 5.36932 9.07405 5.55245ZM14.0741 5.55245C14.3481 5.73559 14.6704 5.83334 15 5.83334C15.442 5.83334 15.866 5.65774 16.1785 5.34518C16.4911 5.03262 16.6667 4.6087 16.6667 4.16666C16.6667 3.83703 16.5689 3.5148 16.3858 3.24072C16.2027 2.96663 15.9424 2.75301 15.6378 2.62687C15.3333 2.50072 14.9982 2.46772 14.6749 2.53202C14.3515 2.59633 14.0546 2.75507 13.8215 2.98816C13.5884 3.22124 13.4297 3.51821 13.3654 3.84151C13.3011 4.16482 13.3341 4.49993 13.4602 4.80447C13.5863 5.10902 13.8 5.36932 14.0741 5.55245Z" fill="white"/>
<path fill-rule="evenodd" clip-rule="evenodd" d="M0 12.6667C0 12.1145 0.447708 11.6667 1 11.6667H49C49.5523 11.6667 50 12.1145 50 12.6667V39.0001C50 39.5524 49.5523 40.0001 49 40.0001H1C0.447708 40.0001 0 39.5524 0 39.0001V12.6667ZM10 33.3334H26.6667C27.1087 33.3334 27.5326 33.1578 27.8452 32.8453C28.1577 32.5327 28.3333 32.1088 28.3333 31.6667C28.3333 31.2247 28.1577 30.8008 27.8452 30.4882C27.5326 30.1757 27.1087 30.0001 26.6667 30.0001H10C9.55797 30.0001 9.13405 30.1757 8.82149 30.4882C8.50893 30.8008 8.33333 31.2247 8.33333 31.6667C8.33333 32.1088 8.50893 32.5327 8.82149 32.8453C9.13405 33.1578 9.55797 33.3334 10 33.3334ZM10 26.6667H40C40.442 26.6667 40.866 26.4912 41.1785 26.1786C41.4911 25.866 41.6667 25.4421 41.6667 25.0001C41.6667 24.5581 41.4911 24.1341 41.1785 23.8216C40.866 23.509 40.442 23.3334 40 23.3334H10C9.55797 23.3334 9.13405 23.509 8.82149 23.8216C8.50893 24.1341 8.33333 24.5581 8.33333 25.0001C8.33333 25.4421 8.50893 25.866 8.82149 26.1786C9.13405 26.4912 9.55797 26.6667 10 26.6667ZM10 20.0001H40C40.442 20.0001 40.866 19.8245 41.1785 19.5119C41.4911 19.1994 41.6667 18.7754 41.6667 18.3334C41.6667 17.8914 41.4911 17.4675 41.1785 17.1549C40.866 16.8423 40.442 16.6667 40 16.6667H10C9.55797 16.6667 9.13405 16.8423 8.82149 17.1549C8.50893 17.4675 8.33333 17.8914 8.33333 18.3334C8.33333 18.7754 8.50893 19.1994 8.82149 19.5119C9.13405 19.8245 9.55797 20.0001 10 20.0001Z" fill="white"/>
</svg>
