<svg width="38" height="40" viewBox="0 0 38 40" fill="none" xmlns="http://www.w3.org/2000/svg">
<path d="M13.6203 2.29799L12.7045 1.89998V1.90027C12.0365 1.60855 11.2789 1.62686 10.6249 1.95106C9.97116 2.27496 9.48387 2.87314 9.2877 3.59334L9.01671 4.57952C8.86717 5.098 8.56438 5.55565 8.15071 5.88869C7.73706 6.22174 7.23316 6.41366 6.70867 6.43788L5.71492 6.48866C5.06724 6.52025 4.45622 6.80695 4.00845 7.29003C3.56042 7.77308 3.30977 8.4153 3.30834 9.08349C3.30834 9.23378 3.32065 9.38377 3.34529 9.53199L3.51373 10.5394C3.60425 11.0768 3.52891 11.6295 3.29831 12.1202C3.06771 12.6107 2.69331 13.0143 2.22837 13.2739L1.34118 13.7776C0.701795 14.1328 0.241757 14.754 0.078149 15.4833C-0.0854221 16.2126 0.0635392 16.9791 0.486926 17.5873L1.06586 18.4338H1.06615C1.37495 18.8767 1.5411 19.4082 1.5411 19.9535C1.5411 20.4988 1.37496 21.0303 1.06615 21.4729L0.482915 22.3194C0.0569483 22.9232 -0.0968764 23.6865 0.060102 24.4152C0.21708 25.144 0.670261 25.7681 1.30421 26.1292L2.17476 26.6203C2.63853 26.8819 3.01062 27.287 3.23898 27.7783C3.46734 28.2696 3.54062 28.8226 3.4481 29.3588L3.27164 30.3662H3.27135C3.24471 30.5186 3.23096 30.673 3.23039 30.8277C3.23154 31.4938 3.48047 32.1339 3.92592 32.6167C4.37108 33.0995 4.97921 33.3876 5.62462 33.4225L6.61837 33.4774C7.1466 33.506 7.65252 33.705 8.06503 34.0461C8.47782 34.3871 8.77602 34.853 8.91812 35.378L9.1851 36.3642C9.38161 37.0819 9.86745 37.6784 10.5194 38.0023C11.1711 38.3262 11.9265 38.3463 12.5937 38.0575L13.5094 37.6639V37.6636C13.9979 37.4531 14.5381 37.4058 15.054 37.529C15.5699 37.6521 16.0351 37.9391 16.3841 38.3495L17.0412 39.1198C17.5205 39.6793 18.21 40 18.9344 40C19.6586 40 20.348 39.6793 20.8276 39.1198L21.4887 38.3536C21.8396 37.9461 22.3057 37.6623 22.8216 37.5422C23.3373 37.4223 23.8767 37.4722 24.3633 37.6848L25.2791 38.0828C25.9472 38.3745 26.7046 38.3559 27.3585 38.032C28.0125 37.7078 28.4995 37.1097 28.6957 36.3895L28.9667 35.4034C29.1145 34.879 29.4184 34.416 29.8355 34.0794C30.2526 33.7428 30.762 33.55 31.2914 33.5281L32.2851 33.4815V33.4818C33.009 33.4478 33.6839 33.0944 34.1374 32.5118C34.5908 31.9296 34.7793 31.174 34.6547 30.4382L34.4863 29.4307C34.3957 28.8937 34.4711 28.3406 34.7017 27.8502C34.9323 27.3595 35.3067 26.9559 35.7716 26.6963L36.6588 26.1885C37.2982 25.8333 37.7582 25.212 37.9219 24.4828C38.0854 23.7535 37.9365 22.987 37.5131 22.3787L36.9341 21.5322H36.9339C36.6251 21.0893 36.4589 20.5578 36.4589 20.0125C36.4589 19.4673 36.625 18.9357 36.9339 18.4931L37.5171 17.6466C37.9431 17.0428 38.0969 16.2795 37.9399 15.5508C37.7829 14.8221 37.3297 14.1979 36.6958 13.8368L35.8252 13.3458C35.3615 13.0842 34.9894 12.6791 34.761 12.1878C34.5327 11.6965 34.4594 11.1435 34.5519 10.6072L34.7284 9.59981H34.7286C34.7553 9.44746 34.769 9.29303 34.7696 9.13832C34.7685 8.4722 34.5195 7.8321 34.0741 7.34932C33.6289 6.86657 33.0208 6.57841 32.3754 6.54356L31.361 6.5226C30.8331 6.49366 30.3269 6.29495 29.9144 5.95393C29.5016 5.6129 29.2034 5.14696 29.0613 4.62201L28.7943 3.63583V3.63553C28.5978 2.91775 28.1119 2.3213 27.4603 1.99771C26.8083 1.6738 26.0532 1.65373 25.3857 1.9425L24.4699 2.33608H24.4702C23.9818 2.5469 23.4413 2.59414 22.9257 2.47102C22.4098 2.34789 21.9445 2.0609 21.5953 1.65052L20.9382 0.880211H20.9385C20.4589 0.320398 19.7695 0 19.0453 0C18.3208 0 17.6313 0.320361 17.1521 0.880211L16.495 1.62929C16.144 2.03705 15.6777 2.32079 15.162 2.44064C14.6464 2.56052 14.107 2.51092 13.6204 2.29803L13.6203 2.29799ZM18.7291 14.819L19.0044 15.1027L19.2753 14.8234V14.8231C20.5223 13.5378 22.3399 13.0359 24.0435 13.5062C25.7471 13.9769 27.0777 15.3484 27.5343 17.1043C27.9907 18.8602 27.5037 20.7337 26.2567 22.0192L19.5381 28.923C19.3972 29.0686 19.2058 29.1501 19.0064 29.1501C18.8068 29.1501 18.6154 29.0686 18.4745 28.923L11.7601 22.0021C10.5128 20.7169 10.0259 18.8431 10.4822 17.0873C10.9388 15.3314 12.2694 13.9598 13.973 13.4895C15.6766 13.0188 17.4942 13.5211 18.7414 14.8063L18.7291 14.819Z" fill="white"/>
</svg>
